<svg version="1.1" id="Layer_1" xmlns="http://www.w3.org/2000/svg" xmlns:xlink="http://www.w3.org/1999/xlink" x="0px" y="0px"
	 width="100%" viewBox="0 0 468 210" enable-background="new 0 0 468 210" xml:space="preserve">
<path fill="#386BA1" opacity="1.000000" stroke="none" 
	d="
M346.000000,211.000000 
	C230.666687,211.000000 115.833374,211.000000 1.000046,211.000000 
	C1.000031,141.000031 1.000031,71.000069 1.000015,1.000074 
	C156.999939,1.000050 312.999878,1.000050 468.999878,1.000025 
	C468.999908,70.999931 468.999908,140.999863 468.999939,210.999893 
	C428.166656,211.000000 387.333344,211.000000 346.000000,211.000000 
M280.630981,57.686371 
	C280.318115,57.514824 280.005249,57.343277 279.794159,57.201462 
	C279.794159,57.201462 279.751038,57.298325 279.743927,56.548698 
	C276.802155,51.472420 267.598450,50.032845 262.585632,54.168087 
	C262.266968,54.305264 261.949677,54.302216 260.652649,54.087906 
	C256.755341,54.956818 250.701965,54.589745 249.363068,56.925316 
	C245.269745,64.065681 242.336792,72.072113 240.212463,80.076050 
	C238.548630,86.344948 238.646240,93.103851 238.204437,99.661430 
	C238.064407,101.740158 238.682785,103.875420 238.999908,105.977913 
	C239.293640,107.925400 239.951523,109.868896 239.918045,111.804970 
	C239.828598,116.977730 238.209244,118.114983 232.970016,116.507637 
	C232.983551,116.339027 232.997101,116.170410 233.442963,115.408684 
	C232.665863,112.608566 231.888763,109.808441 230.816193,106.258163 
	C229.524216,100.852158 228.103577,95.473015 226.968048,90.034348 
	C224.843994,79.861259 222.980148,69.632904 220.760239,59.481728 
	C220.408386,57.872833 218.850464,55.375294 217.699005,55.288261 
	C211.966736,54.855007 206.183929,55.090382 200.954697,55.090382 
	C198.137344,67.193878 195.480179,78.609207 192.265594,90.443184 
	C191.722046,91.253365 191.002991,91.996208 190.662277,92.884216 
	C187.441940,101.277222 187.460510,101.284348 181.991623,94.626091 
	C181.991623,94.626091 181.885056,94.201035 181.421478,93.599037 
	C177.767151,93.195969 174.048523,92.162910 170.472549,92.527771 
	C164.052155,93.182869 162.027512,91.814850 162.002960,85.256233 
	C161.983795,80.137985 162.025955,75.019524 162.961594,69.753380 
	C171.085388,69.753380 179.209198,69.753380 187.730911,69.753380 
	C187.730911,64.517845 187.765091,60.594582 187.693451,56.673256 
	C187.682892,56.095814 187.170654,55.527538 186.252502,54.458607 
	C173.101135,54.340256 159.949844,54.209713 146.798203,54.146553 
	C146.252060,54.143929 145.702881,54.771473 145.197174,55.768108 
	C145.240952,56.642876 145.284729,57.517643 144.972076,59.097191 
	C144.950378,60.721642 144.928665,62.346088 144.928284,64.911285 
	C144.925949,88.279671 144.923615,111.648064 144.513992,135.677917 
	C144.807220,138.405701 145.100449,141.133499 145.732239,143.931534 
	C145.732239,143.931534 145.961746,144.190186 146.248764,144.859192 
	C150.486282,144.701813 154.723801,144.544434 159.592957,144.212051 
	C160.021652,144.127502 160.450348,144.042953 161.408524,143.322144 
	C161.603333,132.218048 161.798126,121.113945 162.641449,109.549782 
	C165.103333,109.373352 167.565201,109.196922 170.232040,109.633057 
	C171.481201,109.433868 172.730362,109.234680 174.661270,109.024307 
	C175.115814,109.025986 175.570343,109.027664 176.232056,109.230965 
	C176.232056,109.230965 176.638397,109.276123 176.638397,109.276123 
	C176.638397,109.276123 176.977921,109.024422 177.649292,109.014084 
	C178.096802,109.014336 178.544327,109.014587 179.542145,109.444740 
	C182.101746,110.984886 184.661362,112.525032 187.224976,114.726173 
	C187.097427,115.146011 186.969894,115.565849 186.194504,116.232826 
	C183.812897,118.220222 183.236191,120.467804 185.107666,123.869507 
	C183.591660,130.433411 182.075653,136.997314 180.491608,143.855865 
	C185.785385,143.855865 190.499649,143.855865 194.956436,143.855865 
	C196.742188,135.459045 198.447800,127.439026 200.165070,119.364235 
	C206.923935,119.364235 213.199066,119.364235 220.190643,119.364235 
	C221.139328,125.645432 222.072403,131.823242 222.585144,138.514847 
	C223.079193,139.997452 223.573227,141.480042 224.001953,142.967911 
	C224.001953,142.967911 224.034164,142.910858 224.174194,143.315918 
	C224.289017,143.579468 224.440674,143.819763 224.862427,144.056381 
	C224.862427,144.056381 224.911804,144.285217 225.312607,144.934814 
	C230.309067,146.183472 235.316895,147.615967 240.000183,143.997482 
	C240.000183,143.997482 240.026382,144.014328 240.691574,143.798019 
	C241.639755,141.426590 242.587952,139.055145 243.512650,136.742447 
	C245.175446,137.364716 247.211014,138.126495 249.805069,139.199890 
	C251.220016,140.426590 252.634964,141.653290 254.178864,143.588211 
	C255.338531,146.310822 257.021820,146.558792 259.880341,144.768295 
	C260.592987,144.912781 261.305664,145.057266 262.491852,145.759827 
	C265.339691,145.812424 268.187531,145.865021 271.696991,145.974686 
	C272.359589,145.937088 273.022186,145.899490 274.375580,145.823288 
	C275.254761,145.166611 276.133942,144.509949 277.109985,143.680161 
	C277.109985,143.680161 277.292999,143.756699 278.154907,143.858185 
	C286.270844,143.846786 288.216492,137.173264 291.403595,130.197174 
	C292.656067,133.127197 293.517212,134.794632 294.094910,136.555069 
	C296.226227,143.050003 304.587250,147.785248 310.382782,145.074448 
	C310.590515,145.097702 310.798279,145.120956 311.340759,145.649796 
	C312.566650,146.066696 313.792511,146.483597 315.634338,146.751419 
	C316.049652,146.808670 316.464966,146.865906 317.661835,146.986816 
	C319.407990,146.666901 321.154175,146.346985 323.668915,146.003464 
	C324.837128,145.670929 326.005310,145.338409 327.951813,145.013397 
	C330.674683,143.798965 333.831116,143.103867 336.033234,141.265610 
	C341.141388,137.001465 341.436188,136.879257 343.961273,143.457001 
	C343.961273,143.457001 344.026489,143.919647 344.282196,144.658279 
	C348.545410,147.114929 352.757050,146.519623 357.630859,144.341812 
	C358.069733,144.204849 358.508636,144.067886 359.462982,144.119232 
	C360.307709,141.598404 361.290588,139.113739 361.962067,136.547577 
	C362.793579,133.369766 362.951630,129.960464 364.142273,126.943909 
	C366.312988,121.444359 370.048645,120.108231 377.262909,121.074226 
	C382.422546,121.765114 383.218140,125.488190 384.059479,129.572556 
	C384.717987,132.769363 385.896942,135.858948 387.026398,139.805756 
	C388.022461,141.244293 388.895844,143.798538 390.036255,143.923935 
	C394.452301,144.409500 398.953400,144.121368 403.246368,144.121368 
	C396.348114,114.262398 389.544373,84.812546 382.700531,55.189194 
	C376.623566,55.189194 370.496429,55.189194 364.133118,55.189194 
	C363.432373,58.327641 362.760620,61.356113 362.079559,64.382492 
	C360.382355,71.924217 358.680969,79.465004 356.561066,87.598557 
	C356.451080,88.311157 356.341095,89.023750 356.348175,89.837074 
	C356.348175,89.837074 356.260071,89.963898 355.583496,90.366302 
	C354.827454,94.966057 354.071442,99.565819 353.259521,104.622375 
	C353.259521,104.622375 352.989471,104.995041 352.578156,105.587639 
	C352.474854,106.294380 352.371552,107.001122 352.307770,108.162163 
	C352.258728,108.467613 352.148010,108.748795 351.305237,109.279678 
	C350.465454,113.189651 346.648865,116.561783 349.110107,121.564728 
	C349.110107,121.564728 348.857788,121.983871 348.142212,121.975243 
	C346.122162,120.994606 344.102112,120.013962 341.913666,118.219002 
	C340.965637,109.501717 336.308777,103.126839 329.566162,97.828278 
	C323.879059,93.359177 318.184601,88.796524 313.150146,83.634712 
	C309.585205,79.979614 309.617920,74.638977 312.496216,70.708534 
	C314.078094,68.548431 318.130951,67.033943 320.947906,67.207336 
	C325.496399,67.487305 327.378906,71.667534 328.678406,75.701515 
	C329.014343,76.744255 329.302917,77.802231 329.644867,78.960281 
	C331.982880,78.207863 334.058990,76.895256 336.040497,77.025192 
	C341.561462,77.387192 343.636261,75.392616 342.437134,69.491554 
	C341.864838,68.376335 341.292511,67.261124 340.798584,66.146919 
	C340.798584,66.146919 340.778900,66.222801 340.852631,65.453850 
	C340.320190,63.927059 340.035278,62.250038 339.214752,60.898094 
	C334.241333,52.703648 321.124847,48.089382 312.191498,51.682194 
	C310.349884,52.422859 309.205475,54.897064 307.597443,56.781219 
	C307.597443,56.781219 307.348450,56.737808 306.625397,56.431087 
	C298.792480,57.732330 294.488373,64.113098 297.347137,70.815155 
	C297.198578,71.211678 297.050018,71.608200 296.075256,72.001686 
	C292.918396,72.149467 290.143005,71.987358 289.739990,67.726738 
	C289.651367,66.789391 287.799316,66.018837 286.861420,65.126129 
	C286.861420,65.126129 286.803680,65.221764 286.856049,64.509483 
	C286.202179,63.692192 285.548309,62.874897 284.963531,62.042393 
	C284.963531,62.042393 284.968994,62.112946 284.686737,61.681622 
	C284.421265,61.467434 284.155792,61.253242 283.444916,60.834633 
	C283.166870,60.619785 283.021698,60.336781 282.839935,59.387543 
	C282.196167,58.945133 281.552399,58.502724 280.969482,58.028976 
	C280.969482,58.028976 280.979034,58.096752 280.630981,57.686371 
M57.033985,30.035374 
	C57.033985,30.035374 57.141949,29.975807 56.624313,30.639606 
	C56.422619,36.337650 56.414627,42.052456 55.923866,47.725491 
	C55.727669,49.993465 54.467072,52.169353 53.243275,54.744823 
	C52.489536,54.853680 51.735802,54.962540 50.221653,54.861217 
	C49.173149,54.916489 48.124645,54.971760 46.607346,55.557163 
	C46.670952,57.374271 46.734558,59.191380 46.910088,61.657627 
	C46.869820,62.092091 46.829552,62.526550 46.170586,63.262093 
	C45.896881,63.660210 45.384258,64.058372 45.384323,64.456444 
	C45.386074,75.228310 45.249500,86.005760 45.564713,96.769722 
	C45.726978,102.310753 46.709599,107.827759 47.221012,113.518456 
	C47.221012,113.518456 47.056236,113.421150 47.074341,114.176758 
	C47.371883,115.104294 47.669426,116.031822 48.365578,117.533424 
	C48.918819,119.031708 49.472057,120.529984 50.011726,122.756905 
	C53.036465,127.080780 56.061203,131.404648 59.544712,136.257263 
	C71.462601,148.430206 96.657501,149.237106 109.776764,135.954880 
	C113.167435,130.319931 116.558098,124.684982 120.121109,118.574471 
	C120.128654,118.242203 120.136208,117.909927 120.604988,117.062019 
	C120.668701,116.387123 120.732414,115.712219 120.973305,114.241982 
	C121.123222,113.167221 121.273132,112.092461 121.816444,110.291206 
	C121.890411,92.736076 121.979439,75.180962 121.992439,57.625793 
	C121.993073,56.777016 121.324959,55.927746 120.962814,54.989918 
	C120.962814,54.989918 121.018204,54.920315 120.599525,54.326145 
	C117.824875,53.513050 115.050224,52.699959 112.217430,51.263680 
	C112.255692,50.848553 112.293953,50.433426 112.691414,49.293755 
	C112.561348,45.190281 112.431282,41.086811 112.185455,36.153103 
	C111.794411,34.112350 111.403366,32.071602 110.267487,29.825418 
	C107.844833,29.890068 105.422173,29.954718 102.119102,30.005045 
	C100.300285,29.981304 98.481339,29.931967 96.662674,29.940815 
	C94.732109,29.950207 92.801811,30.014812 90.347862,29.823198 
	C89.370811,29.953835 88.393753,30.084469 86.618759,30.017467 
	C83.898529,29.411507 81.155815,28.215820 78.462616,28.318548 
	C72.263756,28.554996 66.088982,29.422838 59.412010,29.977499 
	C59.412010,29.977499 58.934650,29.843906 58.806484,29.351879 
	C58.236156,29.615334 57.665825,29.878788 57.033985,30.035374 
M415.981079,187.086609 
	C414.901886,186.055298 413.983307,184.526123 412.704529,184.113632 
	C410.948669,183.547241 408.919800,183.826965 406.922607,183.073975 
	C406.215637,182.586517 405.507416,181.672668 404.801880,181.674744 
	C391.374908,181.714127 377.948242,181.965408 364.521484,181.969696 
	C267.407532,182.000702 170.293549,182.003326 73.179626,181.950409 
	C66.251411,181.946640 59.324100,181.310135 52.394775,181.274109 
	C51.272785,181.268265 50.142437,182.870865 48.204697,183.920959 
	C44.565037,183.839478 43.629765,185.148956 46.703743,188.564575 
	C55.291721,188.717316 63.879639,188.998108 72.467690,189.002563 
	C141.948380,189.038528 211.429352,188.912979 280.909729,189.065292 
	C320.038177,189.151077 359.165375,189.761826 398.293945,189.892288 
	C404.169189,189.911896 410.048920,188.595184 415.981079,187.086609 
M411.496674,182.528595 
	C411.496674,182.528595 411.478668,182.485886 411.496674,182.528595 
z"/>
<path fill="#F7FCFE" opacity="1.000000" stroke="none" 
	d="
M192.823013,90.024544 
	C195.480179,78.609207 198.137344,67.193878 200.954697,55.090382 
	C206.183929,55.090382 211.966736,54.855007 217.699005,55.288261 
	C218.850464,55.375294 220.408386,57.872833 220.760239,59.481728 
	C222.980148,69.632904 224.843994,79.861259 226.968048,90.034348 
	C228.103577,95.473015 229.524216,100.852158 230.914642,107.030350 
	C231.678955,110.535614 232.344818,113.268700 233.010651,116.001785 
	C232.997101,116.170410 232.983551,116.339027 233.007416,117.139153 
	C235.371994,126.518555 237.699188,135.266449 240.026382,144.014328 
	C240.026382,144.014328 240.000183,143.997482 239.539825,144.033600 
	C234.356918,144.141556 229.634369,144.213394 224.911804,144.285217 
	C224.911804,144.285217 224.862427,144.056381 224.691208,143.837646 
	C224.424896,143.337051 224.262955,143.101028 224.034164,142.910858 
	C224.034164,142.910858 224.001953,142.967911 224.072815,142.594635 
	C223.764267,140.814590 223.384872,139.407822 223.005463,138.001068 
	C222.072403,131.823242 221.139328,125.645432 220.190643,119.364235 
	C213.199066,119.364235 206.923935,119.364235 200.165070,119.364235 
	C198.447800,127.439026 196.742188,135.459045 194.956436,143.855865 
	C190.499649,143.855865 185.785385,143.855865 180.491608,143.855865 
	C182.075653,136.997314 183.591660,130.433411 185.412811,123.211349 
	C186.092758,120.364014 186.467545,118.174850 186.842346,115.985680 
	C186.969894,115.565849 187.097427,115.146011 187.447571,114.097229 
	C189.387772,105.653702 191.105392,97.839127 192.823013,90.024544 
M207.004456,85.697945 
	C205.965546,90.875793 204.809387,96.033875 203.931961,101.238945 
	C203.410965,104.329552 204.410156,106.596191 208.179703,106.057030 
	C211.060776,105.644943 213.919220,105.074715 216.619720,104.604111 
	C214.870178,95.949020 213.137848,87.379059 211.405518,78.809097 
	C211.035767,78.736694 210.666016,78.664299 210.296265,78.591904 
	C209.248871,80.694275 208.201477,82.796654 207.004456,85.697945 
z"/>
<path fill="#F7FCFE" opacity="1.000000" stroke="none" 
	d="
M344.026489,143.919647 
	C344.026489,143.919647 343.961273,143.457001 344.030975,142.862930 
	C345.686401,135.507202 347.272095,128.745529 348.857788,121.983871 
	C348.857788,121.983871 349.110107,121.564728 349.402954,121.049820 
	C350.455750,116.691833 351.215698,112.848763 351.975647,109.005692 
	C352.148010,108.748795 352.258728,108.467613 352.537781,107.662537 
	C352.841705,106.440292 352.915588,105.717667 352.989502,104.995041 
	C352.989471,104.995041 353.259521,104.622375 353.523926,104.100021 
	C354.612244,99.039749 355.436157,94.501823 356.260071,89.963898 
	C356.260071,89.963898 356.348175,89.837074 356.550476,89.518471 
	C356.828949,88.468636 356.905121,87.737396 356.981262,87.006165 
	C358.680969,79.465004 360.382355,71.924217 362.079559,64.382492 
	C362.760620,61.356113 363.432373,58.327641 364.133118,55.189194 
	C370.496429,55.189194 376.623566,55.189194 382.700531,55.189194 
	C389.544373,84.812546 396.348114,114.262398 403.246368,144.121368 
	C398.953400,144.121368 394.452301,144.409500 390.036255,143.923935 
	C388.895844,143.798538 388.022461,141.244293 386.976715,138.987778 
	C386.348694,134.736649 385.954132,131.260223 385.157715,127.878418 
	C382.739502,117.610153 385.106598,119.215088 374.719208,119.119270 
	C372.225555,119.096268 369.730164,119.160233 367.238159,119.090889 
	C364.829102,119.023834 363.325104,119.428551 362.887787,122.448647 
	C361.845276,129.648621 360.293579,136.774887 358.947510,143.930923 
	C358.508636,144.067886 358.069733,144.204849 356.847839,144.247986 
	C352.052032,144.075989 348.039246,143.997818 344.026489,143.919647 
M376.022430,81.895439 
	C375.132904,80.250710 374.243347,78.605980 372.851624,76.032753 
	C370.798981,85.059418 368.834167,93.032295 367.292328,101.086151 
	C367.009705,102.562370 368.454803,105.789902 369.087738,105.786072 
	C372.703705,105.764198 376.317596,105.023773 379.915009,104.424133 
	C380.008759,104.408508 379.997101,103.195076 379.880249,102.569061 
	C378.641876,95.933960 377.372192,89.304710 376.022430,81.895439 
z"/>
<path fill="#F7FCFD" opacity="1.000000" stroke="none" 
	d="
M342.053619,69.976051 
	C343.636261,75.392616 341.561462,77.387192 336.040497,77.025192 
	C334.058990,76.895256 331.982880,78.207863 329.644867,78.960281 
	C329.302917,77.802231 329.014343,76.744255 328.678406,75.701515 
	C327.378906,71.667534 325.496399,67.487305 320.947906,67.207336 
	C318.130951,67.033943 314.078094,68.548431 312.496216,70.708534 
	C309.617920,74.638977 309.585205,79.979614 313.150146,83.634712 
	C318.184601,88.796524 323.879059,93.359177 329.566162,97.828278 
	C336.308777,103.126839 340.965637,109.501717 341.916016,119.057434 
	C342.404236,131.437271 337.879822,140.036606 327.173523,145.005875 
	C326.005310,145.338409 324.837128,145.670929 322.994629,145.847931 
	C320.506989,146.102646 318.693634,146.512909 316.880280,146.923157 
	C316.464966,146.865906 316.049652,146.808670 315.145294,146.546951 
	C313.439514,145.943054 312.222748,145.543640 311.006012,145.144211 
	C310.798279,145.120956 310.590515,145.097702 309.944641,144.913757 
	C301.943848,142.287964 297.651917,136.828094 295.038269,129.547791 
	C294.045074,126.781288 294.661316,125.256096 297.054962,124.053741 
	C297.036835,124.035484 297.039368,124.087074 297.336548,124.064018 
	C298.103485,123.703560 298.573212,123.366165 299.026611,123.011322 
	C299.010223,122.993881 299.022705,123.039284 299.336670,123.008453 
	C300.539307,122.444016 301.427979,121.910393 302.261597,121.346992 
	C302.206543,121.317215 302.164856,121.435234 302.511475,121.359077 
	C303.440491,120.914810 304.022919,120.546700 304.727234,120.199799 
	C304.849091,120.221001 304.998383,120.023766 305.329346,120.027550 
	C306.099579,120.037842 306.538849,120.044342 307.012268,120.291138 
	C307.046448,120.531425 307.224182,120.983131 307.181152,121.362633 
	C309.051727,125.270500 310.965332,128.798859 313.088257,132.574707 
	C314.129852,133.019989 314.962158,133.217773 316.100403,133.583252 
	C317.941010,133.502396 319.475739,133.253845 321.005615,133.002045 
	C321.000793,132.998779 321.002625,133.007675 321.334595,133.000519 
	C322.802795,131.735626 323.938995,130.477905 325.364166,128.969604 
	C325.894012,125.730431 326.134888,122.741837 326.435516,119.799263 
	C326.495270,119.845284 326.583862,119.723160 326.513977,119.391495 
	C326.020905,118.301399 325.597717,117.542976 325.157532,116.844955 
	C325.140533,116.905350 325.263458,116.930664 325.195557,116.636284 
	C324.760040,115.882072 324.392426,115.422234 324.009766,114.977493 
	C323.994690,114.992584 324.033905,114.979195 323.954895,114.689926 
	C323.290161,113.881874 322.704468,113.363091 322.114197,112.889381 
	C322.109619,112.934464 322.200195,112.936966 322.085632,112.681580 
	C321.654022,112.249489 321.336975,112.072777 321.025574,111.930817 
	C321.031219,111.965569 321.098846,111.945999 320.909821,111.643242 
	C320.107910,111.096901 319.495056,110.853317 318.749817,110.417694 
	C318.196075,110.105431 317.774719,109.985214 317.317413,109.504929 
	C315.220154,107.693161 313.158875,106.241478 310.971649,104.511917 
	C310.160461,103.492157 309.475189,102.750267 308.733215,101.689316 
	C306.880096,99.809105 305.083679,98.247948 303.204163,96.781372 
	C303.121063,96.875946 303.317657,96.718597 303.208313,96.427544 
	C302.415894,95.713600 301.732819,95.290710 300.995850,94.650101 
	C300.822021,94.123131 300.598236,93.942574 300.238525,93.503403 
	C296.644257,86.464180 296.644043,79.254623 296.901489,72.004730 
	C297.050018,71.608200 297.198578,71.211678 297.544556,70.194305 
	C298.703003,63.617611 302.491211,59.777657 307.348450,56.737808 
	C307.348450,56.737808 307.597443,56.781219 308.006531,56.542282 
	C319.432373,51.889725 332.775818,52.577156 340.778900,66.222801 
	C340.778900,66.222801 340.798584,66.146919 340.818542,66.482002 
	C341.243530,67.870079 341.648590,68.923065 342.053619,69.976051 
z"/>
<path fill="#F7FCFE" opacity="1.000000" stroke="none" 
	d="
M262.018311,145.201752 
	C261.305664,145.057266 260.592987,144.912781 259.271606,144.470840 
	C257.125183,143.742249 255.587555,143.311111 254.049911,142.879974 
	C252.634964,141.653290 251.220016,140.426590 249.504395,138.670929 
	C247.542664,134.026550 245.247360,130.046463 244.335144,125.771255 
	C241.126053,110.731506 240.919876,95.514587 243.068054,80.295479 
	C244.743195,68.427727 248.708420,58.083843 261.633759,54.158951 
	C261.949677,54.302216 262.266968,54.305264 263.241974,54.104187 
	C269.182556,55.126301 274.466797,56.212311 279.751038,57.298325 
	C279.751038,57.298325 279.794159,57.201462 279.868713,57.442383 
	C280.288513,57.821125 280.633759,57.958939 280.979034,58.096752 
	C280.979034,58.096752 280.969482,58.028976 281.068329,58.305717 
	C281.781250,59.050175 282.395325,59.517895 283.009399,59.985611 
	C283.021698,60.336781 283.166870,60.619785 283.752441,61.196693 
	C284.362946,61.743488 284.665985,61.928219 284.968994,62.112946 
	C284.968994,62.112946 284.963531,62.042393 285.006744,62.357765 
	C285.634521,63.522682 286.219116,64.372223 286.803680,65.221764 
	C286.803680,65.221764 286.861420,65.126129 286.875092,65.528076 
	C287.830566,70.567291 288.772339,75.204559 289.516235,79.849876 
	C289.318359,79.857933 288.984070,80.070335 288.602264,80.032654 
	C284.522827,81.247467 280.825226,82.499962 277.098877,83.350815 
	C276.191895,78.919868 275.990936,74.573486 274.285797,70.931267 
	C271.294220,64.541115 264.241119,64.168831 261.203278,70.414612 
	C258.902893,75.144188 258.477814,80.785896 257.150208,86.486969 
	C257.118774,95.289787 257.155273,103.627342 257.110291,112.385574 
	C257.988922,117.640266 258.658325,122.556931 260.001556,127.282036 
	C261.067352,131.031113 263.575317,133.642990 268.072144,133.167496 
	C272.488892,132.700485 274.863342,129.903870 275.987457,125.985863 
	C277.009064,122.425201 277.632507,118.750305 278.495514,114.835197 
	C281.918610,116.354683 284.926758,117.689964 288.106689,119.275986 
	C288.844269,119.714127 289.410034,119.901520 289.971771,120.057205 
	C289.967743,120.025490 289.914368,120.060852 290.066742,120.465057 
	C289.693665,130.635071 286.521729,138.906235 277.292999,143.756699 
	C277.292999,143.756699 277.109985,143.680161 276.697449,143.776016 
	C275.418182,144.535217 274.551483,145.198563 273.684784,145.861908 
	C273.022186,145.899490 272.359589,145.937088 271.102234,145.627838 
	C267.677734,145.254578 264.848022,145.228165 262.018311,145.201752 
z"/>
<path fill="#F1F9FC" opacity="1.000000" stroke="none" 
	d="
M50.025299,122.028267 
	C49.472057,120.529984 48.918819,119.031708 48.188202,116.863426 
	C47.692635,115.269333 47.374435,114.345245 47.056236,113.421150 
	C47.056236,113.421150 47.221012,113.518456 47.288124,112.927788 
	C47.556019,106.122467 47.756802,99.907822 48.412704,93.683533 
	C52.845478,94.396835 56.799847,95.413048 60.809624,95.731354 
	C63.167542,95.918533 65.929489,95.530144 67.895889,94.364838 
	C68.995049,93.713470 68.839584,90.944992 69.249458,89.130508 
	C67.399292,88.715836 65.550308,88.295761 63.698593,87.888130 
	C62.105869,87.537514 60.521980,87.124146 58.913124,86.874001 
	C55.264198,86.306664 51.602299,85.822777 47.618649,85.022522 
	C47.245926,81.830551 47.200222,78.921028 47.479813,75.994476 
	C48.238182,75.945076 48.671265,75.912712 49.070213,75.894043 
	C49.036076,75.907753 49.013123,75.837852 49.323601,76.110634 
	C51.611320,76.548660 53.588566,76.713905 55.923950,76.872734 
	C59.087448,76.620743 61.839577,81.373207 64.739204,76.878723 
	C60.470978,71.340401 56.183475,65.777069 51.751625,59.961540 
	C51.317482,59.453579 51.027699,59.197826 50.655792,58.836205 
	C50.573673,58.730335 50.706738,58.497738 50.770664,58.072350 
	C50.883747,56.788441 50.932907,55.929920 50.982063,55.071396 
	C51.735802,54.962540 52.489536,54.853680 53.933739,54.635056 
	C55.475922,54.362473 56.327641,54.199657 57.457088,54.037884 
	C58.104820,54.024651 58.474819,54.010380 59.135506,54.257263 
	C66.274178,54.632656 73.122169,54.746887 80.198349,54.970032 
	C80.593155,55.104549 80.759766,55.130161 80.926926,55.118309 
	C80.927475,55.080853 80.857819,55.108444 80.999573,55.359009 
	C81.620132,55.927219 82.098938,56.244869 82.530716,56.518826 
	C82.483696,56.475128 82.545830,56.587658 82.719559,56.867218 
	C84.060516,56.821613 85.227737,56.496452 86.633423,56.094276 
	C87.254425,55.699356 87.636971,55.381451 88.276596,55.057030 
	C88.692909,54.987030 88.852150,54.923546 89.462456,54.877453 
	C92.610092,54.688148 95.306671,54.481453 98.283562,54.404652 
	C98.973740,54.573280 99.383591,54.612019 100.233566,54.776817 
	C102.185921,54.817692 103.698158,54.732510 105.581528,54.650932 
	C107.186516,54.712326 108.420372,54.770115 110.097603,54.852707 
	C111.133575,54.854595 111.726166,54.831676 112.747284,54.846230 
	C115.789940,54.895905 118.404068,54.908108 121.018204,54.920315 
	C121.018204,54.920315 120.962814,54.989918 120.938934,55.372231 
	C119.661407,57.515461 118.407753,59.276379 116.838837,61.182785 
	C112.839264,66.477379 109.154945,71.626488 105.470627,76.775604 
	C105.741844,77.245697 106.013069,77.715790 106.284286,78.185883 
	C110.524170,77.135063 114.764046,76.084251 119.328957,75.246353 
	C119.723969,79.009781 119.793945,82.560287 119.636810,85.883835 
	C117.618324,85.487556 115.826950,85.318253 113.712784,85.158058 
	C112.232666,85.688538 111.075356,86.209908 109.595795,86.765182 
	C108.862633,86.930382 108.451714,87.061676 107.722183,87.178558 
	C106.602623,87.434624 105.801682,87.705101 104.645943,87.903122 
	C102.880074,87.542931 101.469009,87.255196 99.783295,86.681000 
	C90.206223,83.150101 80.767349,85.462082 71.129707,84.891823 
	C71.129707,91.309052 70.928329,96.926903 71.204277,102.521202 
	C71.373260,105.947136 71.963463,109.508492 75.881409,111.410675 
	C76.308250,112.479660 76.704994,113.223938 76.706619,113.953568 
	C73.455215,113.253563 70.598923,112.568214 67.925430,111.591965 
	C68.818115,110.394958 69.892570,109.576729 70.137939,108.558670 
	C70.396484,107.486000 70.120323,106.083054 69.583466,105.092247 
	C69.236801,104.452446 67.473526,103.767471 67.242516,103.998817 
	C63.334774,107.912468 60.230640,104.161919 56.745239,103.213203 
	C54.530384,102.610329 52.046116,102.997215 49.682663,102.940269 
	C49.788155,105.428856 49.893654,107.917450 49.994781,110.757324 
	C50.688248,113.750481 51.386078,116.392342 52.016685,119.272781 
	C51.949463,119.511360 51.816326,119.988937 51.634514,120.191803 
	C50.976902,120.939201 50.501102,121.483734 50.025299,122.028267 
M98.117867,73.179207 
	C98.117867,69.562607 98.117867,65.946007 98.117867,62.329411 
	C97.415314,62.359558 96.712761,62.389709 96.010201,62.419857 
	C96.303856,67.382973 96.597504,72.346085 96.891159,77.309196 
	C97.206627,77.303932 97.522095,77.298660 97.837563,77.293388 
	C97.929558,76.216400 98.021561,75.139404 98.117867,73.179207 
z"/>
<path fill="#F6FBFD" opacity="1.000000" stroke="none" 
	d="
M160.879044,143.958405 
	C160.450348,144.042953 160.021652,144.127502 158.826202,144.194031 
	C154.026886,144.180725 149.994308,144.185455 145.961746,144.190186 
	C145.961746,144.190186 145.732239,143.931534 145.549042,143.502258 
	C145.515152,140.383209 145.664474,137.693451 145.890732,134.540375 
	C145.922928,110.717262 145.878159,87.357445 145.901672,63.596275 
	C145.756134,61.594082 145.542328,59.993248 145.328522,58.392410 
	C145.284729,57.517643 145.240952,56.642876 145.627289,55.409008 
	C159.668442,55.018276 173.279480,54.986645 186.890533,54.955017 
	C187.170654,55.527538 187.682892,56.095814 187.693451,56.673256 
	C187.765091,60.594582 187.730911,64.517845 187.730911,69.753380 
	C179.209198,69.753380 171.085388,69.753380 162.359970,69.691040 
	C161.014282,77.886978 160.270233,86.145256 159.544403,94.201035 
	C167.960419,94.201035 174.922745,94.201035 181.885056,94.201035 
	C181.885056,94.201035 181.991623,94.626091 182.047821,95.267365 
	C181.727844,99.971298 181.351685,104.033974 180.554016,108.014343 
	C174.659424,107.711540 169.181015,107.576370 163.715363,107.235901 
	C160.818542,107.055443 159.682770,108.151283 160.136139,111.451874 
	C160.327332,122.595688 160.603180,133.277054 160.879044,143.958405 
z"/>
<path fill="#E0F5FF" opacity="1.000000" stroke="none" 
	d="
M407.007935,183.744125 
	C408.919800,183.826965 410.948669,183.547241 412.704529,184.113632 
	C413.983307,184.526123 414.901886,186.055298 415.493317,187.527344 
	C295.333954,187.968292 175.662338,187.966888 55.990726,187.977112 
	C52.667110,187.977402 49.343506,188.102112 46.019894,188.168793 
	C43.629765,185.148956 44.565037,183.839478 49.003143,183.902588 
	C163.378464,183.890137 276.955322,183.898270 390.532196,183.895218 
	C396.024109,183.895081 401.516022,183.796738 407.007935,183.744125 
z"/>
<path fill="#F3F9FC" opacity="1.000000" stroke="none" 
	d="
M67.742630,111.882858 
	C70.598923,112.568214 73.455215,113.253563 77.002769,114.061905 
	C78.795914,114.787582 79.897789,115.390259 81.137566,116.331604 
	C83.737549,118.609612 86.039322,118.973198 88.246048,115.773895 
	C89.592323,114.882057 90.692772,114.202431 92.040092,113.796310 
	C93.205658,114.133041 94.125313,114.261620 95.042885,114.248192 
	C99.030678,114.189873 103.017868,114.090179 107.167587,114.287598 
	C107.554924,116.644440 107.779938,118.719223 107.576775,120.885773 
	C104.812500,120.977554 102.476402,120.977554 98.829399,120.977554 
	C102.848915,126.134911 105.941154,130.102493 109.052124,134.435059 
	C109.107651,135.285339 109.144432,135.770630 109.181213,136.255920 
	C96.657501,149.237106 71.462601,148.430206 59.438732,135.788818 
	C59.545673,134.893768 59.758595,134.467148 60.245583,133.840271 
	C63.102810,130.035339 65.685974,126.430672 68.531891,122.459328 
	C62.258858,121.153030 57.171383,120.093620 52.083908,119.034203 
	C51.386078,116.392342 50.688248,113.750481 50.370781,110.650116 
	C51.525146,110.234474 52.299152,110.277336 53.341980,110.468613 
	C54.218086,110.704643 54.825367,110.792267 55.705521,110.850212 
	C56.326420,110.926132 56.674454,111.031738 57.254463,111.315186 
	C58.044941,111.642113 58.603447,111.791199 59.386230,111.933563 
	C59.610516,111.926826 60.014519,112.122200 60.110840,112.222382 
	C60.207157,112.322556 60.592926,112.420303 60.592926,112.420303 
	C60.592926,112.420303 60.963894,112.254608 61.271927,112.232079 
	C62.583420,112.430878 63.586884,112.652199 64.914551,112.861008 
	C65.820290,112.594025 66.401817,112.339554 67.160934,111.988625 
	C67.338539,111.892166 67.742630,111.882851 67.742630,111.882858 
M93.120865,129.379776 
	C92.972427,128.814590 92.823997,128.249405 92.675568,127.684212 
	C92.488121,127.695564 92.300667,127.706909 92.113220,127.718262 
	C92.049385,128.484116 91.985542,129.249969 91.590729,130.503403 
	C92.196198,131.024155 92.764717,131.605469 93.437439,132.016006 
	C93.576576,132.100906 94.103287,131.550674 94.451370,131.293182 
	C93.994377,130.867783 93.537392,130.442398 93.120865,129.379776 
z"/>
<path fill="#3C5F8B" opacity="1.000000" stroke="none" 
	d="
M406.965271,183.409058 
	C401.516022,183.796738 396.024109,183.895081 390.532196,183.895218 
	C276.955322,183.898270 163.378464,183.890137 49.408768,183.807114 
	C50.142437,182.870865 51.272785,181.268265 52.394775,181.274109 
	C59.324100,181.310135 66.251411,181.946640 73.179626,181.950409 
	C170.293549,182.003326 267.407532,182.000702 364.521484,181.969696 
	C377.948242,181.965408 391.374908,181.714127 404.801880,181.674744 
	C405.507416,181.672668 406.215637,182.586517 406.965271,183.409058 
z"/>
<path fill="#3E6C9D" opacity="1.000000" stroke="none" 
	d="
M88.019516,55.063545 
	C87.636971,55.381451 87.254425,55.699356 86.147110,56.080540 
	C84.463501,56.291767 83.504669,56.439713 82.545830,56.587658 
	C82.545830,56.587658 82.483696,56.475128 82.446777,56.218285 
	C81.892509,55.677113 81.375168,55.392776 80.857819,55.108444 
	C80.857819,55.108444 80.927475,55.080853 80.828522,54.920441 
	C80.563766,54.517185 80.365723,54.304371 80.103317,53.816071 
	C80.046951,53.307205 80.022675,53.103851 79.993164,52.657612 
	C79.987930,52.414726 79.974861,51.929012 80.048943,51.690483 
	C80.123024,51.451950 80.254478,50.970013 80.371643,50.768715 
	C80.243195,50.076809 79.997597,49.586201 79.502548,48.862404 
	C76.916435,44.205410 74.579781,39.781601 71.980927,34.861382 
	C69.598785,38.794483 67.723732,41.890347 65.638687,45.233910 
	C63.636120,46.988922 61.843552,48.496235 59.824493,50.006256 
	C59.598000,50.008961 59.145271,50.025322 59.084259,49.559002 
	C59.316975,42.739941 59.610703,36.387203 59.904434,30.034462 
	C66.088982,29.422838 72.263756,28.554996 78.462616,28.318548 
	C81.155815,28.215820 83.898529,29.411507 86.769371,30.414223 
	C83.684067,35.213608 80.925804,27.376404 77.957230,30.274855 
	C79.668938,32.098099 81.381569,33.922325 83.142418,35.892105 
	C83.190643,36.037663 83.534210,36.301651 83.534210,36.301651 
	C83.534210,36.301651 83.972481,36.249062 84.267746,36.215515 
	C84.944283,36.075218 85.325554,35.968472 86.174393,35.924999 
	C88.121880,36.504448 89.601799,37.020622 90.982376,37.684071 
	C90.883026,37.831345 90.529594,37.870239 90.175179,38.061958 
	C89.610382,40.482861 89.400002,42.712048 89.460594,45.124657 
	C90.177299,46.516403 90.623032,47.724724 91.037384,48.965965 
	C91.006004,48.998882 90.944870,49.066227 90.634811,49.155380 
	C89.887642,50.155437 89.450531,51.066345 89.007469,52.319378 
	C88.992836,53.117657 88.984161,53.573807 88.790466,54.177200 
	C88.366081,54.535877 88.170776,54.782246 88.019516,55.063545 
z"/>
<path fill="#436D9A" opacity="1.000000" stroke="none" 
	d="
M261.143188,54.123428 
	C248.708420,58.083843 244.743195,68.427727 243.068054,80.295479 
	C240.919876,95.514587 241.126053,110.731506 244.335144,125.771255 
	C245.247360,130.046463 247.542664,134.026550 249.225143,138.515137 
	C247.211014,138.126495 245.175446,137.364716 243.512650,136.742447 
	C242.587952,139.055145 241.639755,141.426590 240.358978,143.906174 
	C237.699188,135.266449 235.371994,126.518555 233.082794,117.381432 
	C238.209244,118.114983 239.828598,116.977730 239.918045,111.804970 
	C239.951523,109.868896 239.293640,107.925400 238.999908,105.977913 
	C238.682785,103.875420 238.064407,101.740158 238.204437,99.661430 
	C238.646240,93.103851 238.548630,86.344948 240.212463,80.076050 
	C242.336792,72.072113 245.269745,64.065681 249.363068,56.925316 
	C250.701965,54.589745 256.755341,54.956818 261.143188,54.123428 
z"/>
<path fill="#496689" opacity="1.000000" stroke="none" 
	d="
M46.361816,188.366699 
	C49.343506,188.102112 52.667110,187.977402 55.990726,187.977112 
	C175.662338,187.966888 295.333954,187.968292 415.466064,187.932373 
	C410.048920,188.595184 404.169189,189.911896 398.293945,189.892288 
	C359.165375,189.761826 320.038177,189.151077 280.909729,189.065292 
	C211.429352,188.912979 141.948380,189.038528 72.467690,189.002563 
	C63.879639,188.998108 55.291721,188.717316 46.361816,188.366699 
z"/>
<path fill="#48709D" opacity="1.000000" stroke="none" 
	d="
M91.081726,37.536797 
	C89.601799,37.020622 88.121880,36.504448 86.282669,35.604393 
	C87.572723,33.498775 89.222061,31.777042 90.871391,30.055309 
	C92.801811,30.014812 94.732109,29.950207 96.662674,29.940815 
	C98.481339,29.931967 100.300285,29.981304 102.778481,30.340960 
	C105.746185,31.482864 108.054512,32.288857 110.378319,33.440517 
	C110.408791,34.477970 110.423782,35.169750 110.347549,36.089554 
	C110.211311,36.667103 110.309540,36.970211 110.549759,37.620449 
	C110.510498,40.959568 110.472488,43.905140 110.346123,47.172318 
	C110.305214,47.711147 110.352669,47.928371 110.389587,48.570030 
	C110.137436,50.938942 109.895828,52.883423 109.654221,54.827904 
	C108.420372,54.770115 107.186516,54.712326 105.468643,54.367584 
	C103.873024,52.754398 102.761429,51.428169 101.638916,50.088917 
	C101.083511,51.461826 100.438477,53.056293 99.793442,54.650757 
	C99.383591,54.612019 98.973740,54.573280 98.290298,54.074127 
	C98.205170,50.188255 98.781151,46.941952 102.393120,44.965836 
	C106.407227,43.359413 104.543732,40.873516 103.382263,38.952236 
	C101.007904,35.024582 96.569038,34.637390 91.081726,37.536797 
z"/>
<path fill="#456E9B" opacity="1.000000" stroke="none" 
	d="
M277.723938,143.807434 
	C286.521729,138.906235 289.693665,130.635071 290.404541,120.554199 
	C292.751007,121.516769 294.912048,122.794388 297.073090,124.072006 
	C294.661316,125.256096 294.045074,126.781288 295.038269,129.547791 
	C297.651917,136.828094 301.943848,142.287964 309.674927,145.073639 
	C304.587250,147.785248 296.226227,143.050003 294.094910,136.555069 
	C293.517212,134.794632 292.656067,133.127197 291.403595,130.197174 
	C288.216492,137.173264 286.270844,143.846786 277.723938,143.807434 
z"/>
<path fill="#4B719A" opacity="1.000000" stroke="none" 
	d="
M327.562683,145.009644 
	C337.879822,140.036606 342.404236,131.437271 342.000244,119.464600 
	C344.102112,120.013962 346.122162,120.994606 348.500000,121.979553 
	C347.272095,128.745529 345.686401,135.507202 343.977051,142.635620 
	C341.436188,136.879257 341.141388,137.001465 336.033234,141.265610 
	C333.831116,143.103867 330.674683,143.798965 327.562683,145.009644 
z"/>
<path fill="#4F7199" opacity="1.000000" stroke="none" 
	d="
M359.205261,144.025085 
	C360.293579,136.774887 361.845276,129.648621 362.887787,122.448647 
	C363.325104,119.428551 364.829102,119.023834 367.238159,119.090889 
	C369.730164,119.160233 372.225555,119.096268 374.719208,119.119270 
	C385.106598,119.215088 382.739502,117.610153 385.157715,127.878418 
	C385.954132,131.260223 386.348694,134.736649 386.885864,138.582977 
	C385.896942,135.858948 384.717987,132.769363 384.059479,129.572556 
	C383.218140,125.488190 382.422546,121.765114 377.262909,121.074226 
	C370.048645,120.108231 366.312988,121.444359 364.142273,126.943909 
	C362.951630,129.960464 362.793579,133.369766 361.962067,136.547577 
	C361.290588,139.113739 360.307709,141.598404 359.205261,144.025085 
z"/>
<path fill="#486F9A" opacity="1.000000" stroke="none" 
	d="
M180.975525,108.096642 
	C181.351685,104.033974 181.727844,99.971298 182.167664,95.450775 
	C187.460510,101.284348 187.441940,101.277222 190.662277,92.884216 
	C191.002991,91.996208 191.722046,91.253365 192.544312,90.233864 
	C191.105392,97.839127 189.387772,105.653702 187.445557,113.766731 
	C184.661362,112.525032 182.101746,110.984886 179.542419,109.179413 
	C180.020309,108.641602 180.497925,108.369125 180.975525,108.096642 
z"/>
<path fill="#A2C6EB" opacity="1.000000" stroke="none" 
	d="
M117.154099,61.037300 
	C118.407753,59.276379 119.661407,57.515461 120.941666,55.416626 
	C121.324959,55.927746 121.993073,56.777016 121.992439,57.625793 
	C121.979439,75.180962 121.890411,92.736076 121.460571,110.710487 
	C121.104706,111.129768 120.771866,111.073555 120.816910,110.758835 
	C120.614777,109.665993 120.367599,108.887878 120.035744,107.745110 
	C120.000763,106.886620 120.050468,106.392776 120.311966,105.635002 
	C120.675926,104.246979 120.828094,103.122902 121.023254,101.556229 
	C120.675613,98.326225 120.284988,95.538826 119.850998,92.338425 
	C119.826401,89.987213 119.845161,88.049011 119.863930,86.110802 
	C119.793945,82.560287 119.723969,79.009781 119.434708,74.791611 
	C118.528313,69.761734 117.841209,65.399513 117.154099,61.037300 
z"/>
<path fill="#426C9A" opacity="1.000000" stroke="none" 
	d="
M340.815765,65.838326 
	C332.775818,52.577156 319.432373,51.889725 308.077698,56.437805 
	C309.205475,54.897064 310.349884,52.422859 312.191498,51.682194 
	C321.124847,48.089382 334.241333,52.703648 339.214752,60.898094 
	C340.035278,62.250038 340.320190,63.927059 340.815765,65.838326 
z"/>
<path fill="#426C9A" opacity="1.000000" stroke="none" 
	d="
M289.714111,79.841820 
	C288.772339,75.204559 287.830566,70.567291 286.824036,65.550751 
	C287.799316,66.018837 289.651367,66.789391 289.739990,67.726738 
	C290.143005,71.987358 292.918396,72.149467 296.488373,72.003204 
	C296.644043,79.254623 296.644257,86.464180 299.876831,93.437393 
	C298.362335,91.064224 296.618378,88.467247 296.127472,85.651779 
	C295.440552,81.712090 294.634613,78.742912 289.714111,79.841820 
z"/>
<path fill="#486F9A" opacity="1.000000" stroke="none" 
	d="
M181.653259,93.900040 
	C174.922745,94.201035 167.960419,94.201035 159.544403,94.201035 
	C160.270233,86.145256 161.014282,77.886978 161.899612,69.764923 
	C162.025955,75.019524 161.983795,80.137985 162.002960,85.256233 
	C162.027512,91.814850 164.052155,93.182869 170.472549,92.527771 
	C174.048523,92.162910 177.767151,93.195969 181.653259,93.900040 
z"/>
<path fill="#F7FCFE" opacity="1.000000" stroke="none" 
	d="
M108.004959,120.793991 
	C107.779938,118.719223 107.554924,116.644440 107.284561,114.048630 
	C107.495399,113.061325 107.751572,112.595055 108.216568,112.010902 
	C108.425385,111.893021 108.891953,111.781616 108.891953,111.781616 
	C108.891953,111.781616 109.361801,111.878265 109.651688,111.810181 
	C110.287628,111.554359 110.633690,111.366608 111.250137,111.065155 
	C111.908203,110.930695 112.295883,110.909920 113.141510,110.920258 
	C115.990250,110.992104 118.381058,111.032829 120.771866,111.073555 
	C120.771866,111.073555 121.104706,111.129768 121.263878,111.073730 
	C121.273132,112.092461 121.123222,113.167221 120.711182,114.924500 
	C120.347282,116.263901 120.245514,116.920784 120.143753,117.577660 
	C120.136208,117.909927 120.128654,118.242203 119.701820,118.741898 
	C117.846458,119.209084 116.410378,119.508842 114.637238,119.880508 
	C113.852470,119.876030 113.404778,119.799629 112.715721,119.569092 
	C111.639069,119.655380 110.803772,119.895805 109.779846,120.336494 
	C109.062469,120.622513 108.533714,120.708252 108.004959,120.793991 
z"/>
<path fill="#486382" opacity="1.000000" stroke="none" 
	d="
M145.833405,63.997635 
	C145.878159,87.357445 145.922928,110.717262 145.667572,134.539780 
	C145.367447,135.002487 144.921280,135.016449 144.921280,135.016449 
	C144.923615,111.648064 144.925949,88.279671 145.149612,64.450645 
	C145.370941,63.990009 145.833405,63.997635 145.833405,63.997635 
z"/>
<path fill="#3B5C80" opacity="1.000000" stroke="none" 
	d="
M47.154522,76.011505 
	C47.200222,78.921028 47.245926,81.830551 47.602779,85.441727 
	C47.928482,88.659973 47.943031,91.176567 47.957581,93.693169 
	C47.756802,99.907822 47.556019,106.122467 47.338379,112.846375 
	C46.709599,107.827759 45.726978,102.310753 45.564713,96.769722 
	C45.249500,86.005760 45.386074,75.228310 45.384323,64.456444 
	C45.384258,64.058372 45.896881,63.660210 46.547211,63.575676 
	C47.000732,67.930008 47.077625,71.970757 47.154522,76.011505 
z"/>
<path fill="#3C5F8B" opacity="1.000000" stroke="none" 
	d="
M161.143784,143.640274 
	C160.603180,133.277054 160.327332,122.595688 160.361664,111.336227 
	C161.112213,110.508705 161.552582,110.259277 161.992920,110.009850 
	C161.798126,121.113945 161.603333,132.218048 161.143784,143.640274 
z"/>
<path fill="#CDEBF8" opacity="1.000000" stroke="none" 
	d="
M114.974304,119.808594 
	C116.410378,119.508842 117.846458,119.209084 119.615646,118.979683 
	C116.558098,124.684982 113.167435,130.319931 109.478989,136.105408 
	C109.144432,135.770630 109.107651,135.285339 109.301765,134.210495 
	C111.778595,130.176788 114.162666,126.809280 116.152016,123.222824 
	C116.542397,122.519035 115.406349,120.968567 114.974304,119.808594 
z"/>
<path fill="#CDEBF8" opacity="1.000000" stroke="none" 
	d="
M59.658222,30.005981 
	C59.610703,36.387203 59.316975,42.739941 59.021278,49.953415 
	C58.961147,51.874805 58.902981,52.935455 58.844818,53.996109 
	C58.474819,54.010380 58.104820,54.024651 57.405731,53.570145 
	C57.098412,45.392849 57.120182,37.684326 57.141949,29.975807 
	C57.141949,29.975807 57.033985,30.035374 57.369751,30.027630 
	C58.115227,29.961227 58.524937,29.902567 58.934650,29.843906 
	C58.934650,29.843906 59.412010,29.977499 59.658222,30.005981 
z"/>
<path fill="#E0F5FF" opacity="1.000000" stroke="none" 
	d="
M47.479813,75.994476 
	C47.077625,71.970757 47.000732,67.930008 46.856560,63.425140 
	C46.829552,62.526550 46.869820,62.092091 46.926620,60.908287 
	C46.987484,58.448311 47.031815,56.737671 47.076141,55.027031 
	C48.124645,54.971760 49.173149,54.916489 50.601860,54.966309 
	C50.932907,55.929920 50.883747,56.788441 50.389004,58.017189 
	C49.663727,64.218391 49.384037,70.049362 49.104347,75.880341 
	C48.671265,75.912712 48.238182,75.945076 47.479813,75.994476 
z"/>
<path fill="#20426A" opacity="1.000000" stroke="none" 
	d="
M186.571518,54.706810 
	C173.279480,54.986645 159.668442,55.018276 145.606262,55.077671 
	C145.702881,54.771473 146.252060,54.143929 146.798203,54.146553 
	C159.949844,54.209713 173.101135,54.340256 186.571518,54.706810 
z"/>
<path fill="#426C9A" opacity="1.000000" stroke="none" 
	d="
M306.986938,56.584450 
	C302.491211,59.777657 298.703003,63.617611 297.547333,69.875557 
	C294.488373,64.113098 298.792480,57.732330 306.986938,56.584450 
z"/>
<path fill="#E0F5FF" opacity="1.000000" stroke="none" 
	d="
M110.434479,46.850716 
	C110.472488,43.905140 110.510498,40.959568 110.647575,37.392525 
	C110.793732,36.417194 110.691109,36.114017 110.438782,35.861530 
	C110.423782,35.169750 110.408791,34.477970 110.525162,33.161613 
	C110.775124,31.701645 110.893723,30.866247 111.012314,30.030851 
	C111.403366,32.071602 111.794411,34.112350 112.146011,37.024010 
	C112.181778,41.936043 112.256996,45.977173 112.332214,50.018299 
	C112.293953,50.433426 112.255692,50.848553 112.137817,51.933250 
	C112.145058,53.338131 112.231911,54.073444 112.318756,54.808762 
	C111.726166,54.831676 111.133575,54.854595 110.097603,54.852707 
	C109.895828,52.883423 110.137436,50.938942 110.518326,48.433388 
	C110.686783,47.750523 110.766533,47.613163 110.734802,47.510113 
	C110.664345,47.281189 110.538025,47.069458 110.434479,46.850716 
z"/>
<path fill="#436D9A" opacity="1.000000" stroke="none" 
	d="
M279.747498,56.923512 
	C274.466797,56.212311 269.182556,55.126301 263.455078,53.985943 
	C267.598450,50.032845 276.802155,51.472420 279.747498,56.923512 
z"/>
<path fill="#4F7199" opacity="1.000000" stroke="none" 
	d="
M162.317200,109.779816 
	C161.552582,110.259277 161.112213,110.508705 160.446335,110.873772 
	C159.682770,108.151283 160.818542,107.055443 163.715363,107.235901 
	C169.181015,107.576370 174.659424,107.711540 180.554031,108.014343 
	C180.497925,108.369125 180.020309,108.641602 179.267273,108.964462 
	C178.544327,109.014587 178.096802,109.014336 177.075500,109.015747 
	C176.501724,109.017403 176.024887,109.029343 176.024887,109.029343 
	C175.570343,109.027664 175.115814,109.025986 173.925537,109.015854 
	C172.135559,109.011772 171.081329,109.016136 170.027084,109.020493 
	C167.565201,109.196922 165.103333,109.373352 162.317200,109.779816 
z"/>
<path fill="#CDEBF8" opacity="1.000000" stroke="none" 
	d="
M59.971519,134.040543 
	C59.758595,134.467148 59.545673,134.893768 59.209343,135.524445 
	C56.061203,131.404648 53.036465,127.080780 50.018513,122.392586 
	C50.501102,121.483734 50.976902,120.939201 51.704697,120.561050 
	C54.628304,125.165146 57.299911,129.602844 59.971519,134.040543 
z"/>
<path fill="#CDEBF8" opacity="1.000000" stroke="none" 
	d="
M90.609627,29.939255 
	C89.222061,31.777042 87.572723,33.498775 85.815109,35.541115 
	C85.325554,35.968472 84.944283,36.075218 84.057213,36.074051 
	C83.399010,35.892944 83.246605,35.819748 83.094193,35.746552 
	C81.381569,33.922325 79.668938,32.098099 77.957230,30.274855 
	C80.925804,27.376404 83.684067,35.213608 87.168343,30.513041 
	C88.393753,30.084469 89.370811,29.953835 90.609627,29.939255 
z"/>
<path fill="#436D9A" opacity="1.000000" stroke="none" 
	d="
M225.112213,144.610016 
	C229.634369,144.213394 234.356918,144.141556 239.546661,144.047333 
	C235.316895,147.615967 230.309067,146.183472 225.112213,144.610016 
z"/>
<path fill="#3B5C80" opacity="1.000000" stroke="none" 
	d="
M56.883133,30.307707 
	C57.120182,37.684326 57.098412,45.392849 57.127998,53.569107 
	C56.327641,54.199657 55.475922,54.362473 54.157600,54.456223 
	C54.467072,52.169353 55.727669,49.993465 55.923866,47.725491 
	C56.414627,42.052456 56.422619,36.337650 56.883133,30.307707 
z"/>
<path fill="#456A90" opacity="1.000000" stroke="none" 
	d="
M355.921783,90.165100 
	C355.436157,94.501823 354.612244,99.039749 353.551880,103.871628 
	C354.071442,99.565819 354.827454,94.966057 355.921783,90.165100 
z"/>
<path fill="#4F7199" opacity="1.000000" stroke="none" 
	d="
M344.154358,144.288971 
	C348.039246,143.997818 352.052032,144.075989 356.504211,144.299179 
	C352.757050,146.519623 348.545410,147.114929 344.154358,144.288971 
z"/>
<path fill="#4B719A" opacity="1.000000" stroke="none" 
	d="
M351.640442,109.142685 
	C351.215698,112.848763 350.455750,116.691833 349.434540,120.807251 
	C346.648865,116.561783 350.465454,113.189651 351.640442,109.142685 
z"/>
<path fill="#6F8BAC" opacity="1.000000" stroke="none" 
	d="
M112.747284,54.846230 
	C112.231911,54.073444 112.145058,53.338131 112.166893,52.244843 
	C115.050224,52.699959 117.824875,53.513050 120.808868,54.623230 
	C118.404068,54.908108 115.789940,54.895905 112.747284,54.846230 
z"/>
<path fill="#4F7199" opacity="1.000000" stroke="none" 
	d="
M146.105255,144.524689 
	C149.994308,144.185455 154.026886,144.180725 158.510376,144.281525 
	C154.723801,144.544434 150.486282,144.701813 146.105255,144.524689 
z"/>
<path fill="#456E9B" opacity="1.000000" stroke="none" 
	d="
M262.255066,145.480789 
	C264.848022,145.228165 267.677734,145.254578 270.771423,145.599304 
	C268.187531,145.865021 265.339691,145.812424 262.255066,145.480789 
z"/>
<path fill="#436D9A" opacity="1.000000" stroke="none" 
	d="
M233.226807,115.705231 
	C232.344818,113.268700 231.678955,110.535614 231.062378,107.405426 
	C231.888763,109.808441 232.665863,112.608566 233.226807,115.705231 
z"/>
<path fill="#4F7199" opacity="1.000000" stroke="none" 
	d="
M144.717636,135.347183 
	C144.921280,135.016449 145.367447,135.002487 145.590607,135.003082 
	C145.664474,137.693451 145.515152,140.383209 145.379761,143.467133 
	C145.100449,141.133499 144.807220,138.405701 144.717636,135.347183 
z"/>
<path fill="#9AB7D7" opacity="1.000000" stroke="none" 
	d="
M110.639900,29.928135 
	C110.893723,30.866247 110.775124,31.701645 110.509689,32.815941 
	C108.054512,32.288857 105.746185,31.482864 103.218689,30.348120 
	C105.422173,29.954718 107.844833,29.890068 110.639900,29.928135 
z"/>
<path fill="#486F9A" opacity="1.000000" stroke="none" 
	d="
M186.518433,116.109253 
	C186.467545,118.174850 186.092758,120.364014 185.462509,122.817917 
	C183.236191,120.467804 183.812897,118.220222 186.518433,116.109253 
z"/>
<path fill="#6F8BAC" opacity="1.000000" stroke="none" 
	d="
M112.511810,49.656029 
	C112.256996,45.977173 112.181778,41.936043 112.203888,37.439125 
	C112.431282,41.086811 112.561348,45.190281 112.511810,49.656029 
z"/>
<path fill="#436D9A" opacity="1.000000" stroke="none" 
	d="
M254.114380,143.234100 
	C255.587555,143.311111 257.125183,143.742249 258.912933,144.408127 
	C257.021820,146.558792 255.338531,146.310822 254.114380,143.234100 
z"/>
<path fill="#456E9B" opacity="1.000000" stroke="none" 
	d="
M317.271057,146.954987 
	C318.693634,146.512909 320.506989,146.102646 322.610352,145.859726 
	C321.154175,146.346985 319.407990,146.666901 317.271057,146.954987 
z"/>
<path fill="#4F7199" opacity="1.000000" stroke="none" 
	d="
M145.901672,63.596275 
	C145.833405,63.997635 145.370941,63.990009 145.138947,63.980274 
	C144.928665,62.346088 144.950378,60.721642 145.150299,58.744801 
	C145.542328,59.993248 145.756134,61.594082 145.901672,63.596275 
z"/>
<path fill="#436D9A" opacity="1.000000" stroke="none" 
	d="
M222.795319,138.257965 
	C223.384872,139.407822 223.764267,140.814590 224.105469,142.591995 
	C223.573227,141.480042 223.079193,139.997452 222.795319,138.257965 
z"/>
<path fill="#456E9B" opacity="1.000000" stroke="none" 
	d="
M311.173401,145.397003 
	C312.222748,145.543640 313.439514,145.943054 314.837341,146.621490 
	C313.792511,146.483597 312.566650,146.066696 311.173401,145.397003 
z"/>
<path fill="#486F9A" opacity="1.000000" stroke="none" 
	d="
M170.129562,109.326775 
	C171.081329,109.016136 172.135559,109.011772 173.584656,109.021454 
	C172.730362,109.234680 171.481201,109.433868 170.129562,109.326775 
z"/>
<path fill="#3B5C80" opacity="1.000000" stroke="none" 
	d="
M46.841743,55.292099 
	C47.031815,56.737671 46.987484,58.448311 46.870663,60.583717 
	C46.734558,59.191380 46.670952,57.374271 46.841743,55.292099 
z"/>
<path fill="#426C9A" opacity="1.000000" stroke="none" 
	d="
M342.245361,69.733803 
	C341.648590,68.923065 341.243530,67.870079 340.779358,66.481491 
	C341.292511,67.261124 341.864838,68.376335 342.245361,69.733803 
z"/>
<path fill="#436D9A" opacity="1.000000" stroke="none" 
	d="
M286.829865,64.865623 
	C286.219116,64.372223 285.634521,63.522682 284.972198,62.365372 
	C285.548309,62.874897 286.202179,63.692192 286.829865,64.865623 
z"/>
<path fill="#456E9B" opacity="1.000000" stroke="none" 
	d="
M274.030182,145.842590 
	C274.551483,145.198563 275.418182,144.535217 276.648987,143.862579 
	C276.133942,144.509949 275.254761,145.166611 274.030182,145.842590 
z"/>
<path fill="#3B5C80" opacity="1.000000" stroke="none" 
	d="
M58.870567,29.597893 
	C58.524937,29.902567 58.115227,29.961227 57.400505,30.081066 
	C57.665825,29.878788 58.236156,29.615334 58.870567,29.597893 
z"/>
<path fill="#3B5C80" opacity="1.000000" stroke="none" 
	d="
M47.065289,113.798950 
	C47.374435,114.345245 47.692635,115.269333 47.988899,116.576393 
	C47.669426,116.031822 47.371883,115.104294 47.065289,113.798950 
z"/>
<path fill="#436D9A" opacity="1.000000" stroke="none" 
	d="
M282.924683,59.686577 
	C282.395325,59.517895 281.781250,59.050175 281.037903,58.321384 
	C281.552399,58.502724 282.196167,58.945133 282.924683,59.686577 
z"/>
<path fill="#F1F9FC" opacity="1.000000" stroke="none" 
	d="
M120.374374,117.319839 
	C120.245514,116.920784 120.347282,116.263901 120.622589,115.322174 
	C120.732414,115.712219 120.668701,116.387123 120.374374,117.319839 
z"/>
<path fill="#456A90" opacity="1.000000" stroke="none" 
	d="
M356.771179,87.302361 
	C356.905121,87.737396 356.828949,88.468636 356.491943,89.468109 
	C356.341095,89.023750 356.451080,88.311157 356.771179,87.302361 
z"/>
<path fill="#4B719A" opacity="1.000000" stroke="none" 
	d="
M352.783813,105.291336 
	C352.915588,105.717667 352.841705,106.440292 352.518066,107.435394 
	C352.371552,107.001122 352.474854,106.294380 352.783813,105.291336 
z"/>
<path fill="#486F9A" opacity="1.000000" stroke="none" 
	d="
M176.128479,109.130157 
	C176.024887,109.029343 176.501724,109.017403 176.739822,109.020912 
	C176.977921,109.024422 176.638397,109.276123 176.638397,109.276123 
	C176.638397,109.276123 176.232056,109.230965 176.128479,109.130157 
z"/>
<path fill="#3C5F8B" opacity="1.000000" stroke="none" 
	d="
M411.487671,182.507233 
	C411.478668,182.485886 411.496674,182.528595 411.487671,182.507233 
z"/>
<path fill="#436D9A" opacity="1.000000" stroke="none" 
	d="
M280.804993,57.891563 
	C280.633759,57.958939 280.288513,57.821125 279.817810,57.427521 
	C280.005249,57.343277 280.318115,57.514824 280.804993,57.891563 
z"/>
<path fill="#436D9A" opacity="1.000000" stroke="none" 
	d="
M284.827881,61.897285 
	C284.665985,61.928219 284.362946,61.743488 283.975128,61.298904 
	C284.155792,61.253242 284.421265,61.467434 284.827881,61.897285 
z"/>
<path fill="#436D9A" opacity="1.000000" stroke="none" 
	d="
M224.104187,143.113388 
	C224.262955,143.101028 224.424896,143.337051 224.574570,143.827866 
	C224.440674,143.819763 224.289017,143.579468 224.104187,143.113388 
z"/>
<path fill="#426C99" opacity="1.000000" stroke="none" 
	d="
M207.079269,85.298492 
	C208.201477,82.796654 209.248871,80.694275 210.296265,78.591904 
	C210.666016,78.664299 211.035767,78.736694 211.405518,78.809097 
	C213.137848,87.379059 214.870178,95.949020 216.619720,104.604111 
	C213.919220,105.074715 211.060776,105.644943 208.179703,106.057030 
	C204.410156,106.596191 203.410965,104.329552 203.931961,101.238945 
	C204.809387,96.033875 205.965546,90.875793 207.079269,85.298492 
z"/>
<path fill="#446C9A" opacity="1.000000" stroke="none" 
	d="
M376.066772,82.284653 
	C377.372192,89.304710 378.641876,95.933960 379.880249,102.569061 
	C379.997101,103.195076 380.008759,104.408508 379.915009,104.424133 
	C376.317596,105.023773 372.703705,105.764198 369.087738,105.786072 
	C368.454803,105.789902 367.009705,102.562370 367.292328,101.086151 
	C368.834167,93.032295 370.798981,85.059418 372.851624,76.032753 
	C374.243347,78.605980 375.132904,80.250710 376.066772,82.284653 
z"/>
<path fill="#3A6BA0" opacity="1.000000" stroke="none" 
	d="
M289.516235,79.849876 
	C294.634613,78.742912 295.440552,81.712090 296.127472,85.651779 
	C296.618378,88.467247 298.362335,91.064224 299.908875,93.824692 
	C300.598236,93.942574 300.822021,94.123131 301.080627,94.968811 
	C301.918762,95.909683 302.618195,96.314140 303.317657,96.718597 
	C303.317657,96.718597 303.121063,96.875946 303.192688,97.142563 
	C305.106201,98.942238 306.948059,100.475311 308.789917,102.008377 
	C309.475189,102.750267 310.160461,103.492157 311.034241,104.853195 
	C313.266266,106.936562 315.309814,108.400772 317.353363,109.864990 
	C317.774719,109.985214 318.196075,110.105431 318.958221,110.681900 
	C319.898956,111.407433 320.498901,111.676720 321.098846,111.945999 
	C321.098846,111.945999 321.031219,111.965569 321.183899,112.144730 
	C321.624481,112.528252 321.912323,112.732605 322.200195,112.936966 
	C322.200195,112.936966 322.109619,112.934464 322.072815,113.247726 
	C322.024384,114.039360 322.012756,114.517723 321.825867,115.264297 
	C324.116058,121.456985 322.791687,127.240944 321.002625,133.007675 
	C321.002625,133.007675 321.000793,132.998779 320.651855,132.931717 
	C318.800079,133.048294 317.297302,133.231934 315.794495,133.415573 
	C314.962158,133.217773 314.129852,133.019989 313.097198,132.173492 
	C311.331787,127.835587 312.146240,122.865891 307.224182,120.983131 
	C307.224182,120.983131 307.046448,120.531425 306.955139,120.035690 
	C306.242004,119.701233 305.620178,119.862503 304.998383,120.023773 
	C304.998383,120.023766 304.849091,120.221001 304.364319,120.225098 
	C303.308014,120.631210 302.736450,121.033226 302.164856,121.435242 
	C302.164856,121.435234 302.206543,121.317215 301.904785,121.275726 
	C300.742920,121.835922 299.882812,122.437599 299.022705,123.039276 
	C299.022705,123.039284 299.010223,122.993881 298.735779,123.054855 
	C297.987366,123.439568 297.513367,123.763313 297.039368,124.087067 
	C297.039368,124.087074 297.036835,124.035484 297.054962,124.053741 
	C294.912048,122.794388 292.751007,121.516769 290.252167,120.150002 
	C289.914368,120.060852 289.967743,120.025490 289.770630,119.837852 
	C289.027283,119.441895 288.481079,119.233566 287.934875,119.025238 
	C284.926758,117.689964 281.918610,116.354683 278.495514,114.835197 
	C277.632507,118.750305 277.009064,122.425201 275.987457,125.985863 
	C274.863342,129.903870 272.488892,132.700485 268.072144,133.167496 
	C263.575317,133.642990 261.067352,131.031113 260.001556,127.282036 
	C258.658325,122.556931 257.988922,117.640266 257.293030,112.019814 
	C257.444214,102.829483 257.331207,94.425591 257.218201,86.021698 
	C258.477814,80.785896 258.902893,75.144188 261.203278,70.414612 
	C264.241119,64.168831 271.294220,64.541115 274.285797,70.931267 
	C275.990936,74.573486 276.191895,78.919868 277.184814,83.705338 
	C279.058350,84.801498 281.217163,85.944031 282.490479,85.309540 
	C284.921600,84.098114 286.848114,81.874062 288.984070,80.070343 
	C288.984070,80.070335 289.318359,79.857933 289.516235,79.849876 
z"/>
<path fill="#426C9A" opacity="1.000000" stroke="none" 
	d="
M321.334595,133.000519 
	C322.791687,127.240944 324.116058,121.456985 322.164612,115.265884 
	C323.130432,114.992577 323.582184,114.985886 324.033905,114.979195 
	C324.033905,114.979195 323.994690,114.992584 324.073730,115.272888 
	C324.522980,116.012352 324.893219,116.471504 325.263458,116.930664 
	C325.263458,116.930664 325.140533,116.905350 325.135925,117.206688 
	C325.615479,118.246399 326.099670,118.984779 326.583862,119.723160 
	C326.583862,119.723160 326.495270,119.845284 326.332794,120.229485 
	C325.805267,123.482513 325.440216,126.351349 325.075195,129.220184 
	C323.938995,130.477905 322.802795,131.735626 321.334595,133.000519 
z"/>
<path fill="#456E9B" opacity="1.000000" stroke="none" 
	d="
M307.181152,121.362633 
	C312.146240,122.865891 311.331787,127.835587 312.887939,131.925995 
	C310.965332,128.798859 309.051727,125.270500 307.181152,121.362633 
z"/>
<path fill="#426C9A" opacity="1.000000" stroke="none" 
	d="
M317.317413,109.504921 
	C315.309814,108.400772 313.266266,106.936562 311.160156,105.131073 
	C313.158875,106.241478 315.220154,107.693161 317.317413,109.504921 
z"/>
<path fill="#426C9A" opacity="1.000000" stroke="none" 
	d="
M308.733215,101.689316 
	C306.948059,100.475311 305.106201,98.942238 303.275818,97.047981 
	C305.083679,98.247948 306.880096,99.809105 308.733215,101.689316 
z"/>
<path fill="#456A90" opacity="1.000000" stroke="none" 
	d="
M325.364166,128.969604 
	C325.440216,126.351349 325.805267,123.482513 326.273041,120.183464 
	C326.134888,122.741837 325.894012,125.730431 325.364166,128.969604 
z"/>
<path fill="#426C9A" opacity="1.000000" stroke="none" 
	d="
M316.100403,133.583252 
	C317.297302,133.231934 318.800079,133.048294 320.656677,132.934967 
	C319.475739,133.253845 317.941010,133.502396 316.100403,133.583252 
z"/>
<path fill="#456E9B" opacity="1.000000" stroke="none" 
	d="
M299.336670,123.008453 
	C299.882812,122.437599 300.742920,121.835922 301.959839,121.305511 
	C301.427979,121.910393 300.539307,122.444016 299.336670,123.008453 
z"/>
<path fill="#456E9B" opacity="1.000000" stroke="none" 
	d="
M305.329346,120.027557 
	C305.620178,119.862503 306.242004,119.701233 306.920959,119.795410 
	C306.538849,120.044342 306.099579,120.037842 305.329346,120.027557 
z"/>
<path fill="#426C9A" opacity="1.000000" stroke="none" 
	d="
M303.208313,96.427551 
	C302.618195,96.314140 301.918762,95.909683 301.134521,95.186523 
	C301.732819,95.290710 302.415894,95.713600 303.208313,96.427551 
z"/>
<path fill="#456A90" opacity="1.000000" stroke="none" 
	d="
M326.513977,119.391495 
	C326.099670,118.984779 325.615479,118.246399 325.152893,117.146286 
	C325.597717,117.542976 326.020905,118.301399 326.513977,119.391495 
z"/>
<path fill="#456A90" opacity="1.000000" stroke="none" 
	d="
M323.954895,114.689926 
	C323.582184,114.985886 323.130432,114.992577 322.339935,114.997681 
	C322.012756,114.517723 322.024384,114.039360 322.077362,113.202652 
	C322.704468,113.363091 323.290161,113.881874 323.954895,114.689926 
z"/>
<path fill="#456E9B" opacity="1.000000" stroke="none" 
	d="
M297.336548,124.064011 
	C297.513367,123.763313 297.987366,123.439568 298.752167,123.072296 
	C298.573212,123.366165 298.103485,123.703560 297.336548,124.064011 
z"/>
<path fill="#456E9B" opacity="1.000000" stroke="none" 
	d="
M302.511475,121.359085 
	C302.736450,121.033226 303.308014,120.631210 304.242462,120.203888 
	C304.022919,120.546700 303.440491,120.914810 302.511475,121.359085 
z"/>
<path fill="#456A90" opacity="1.000000" stroke="none" 
	d="
M320.909821,111.643250 
	C320.498901,111.676720 319.898956,111.407433 319.090576,110.873947 
	C319.495056,110.853317 320.107910,111.096901 320.909821,111.643250 
z"/>
<path fill="#456A90" opacity="1.000000" stroke="none" 
	d="
M325.195557,116.636284 
	C324.893219,116.471504 324.522980,116.012352 324.088776,115.257797 
	C324.392426,115.422234 324.760040,115.882072 325.195557,116.636284 
z"/>
<path fill="#456A90" opacity="1.000000" stroke="none" 
	d="
M322.085632,112.681580 
	C321.912323,112.732605 321.624481,112.528252 321.178284,112.109985 
	C321.336975,112.072777 321.654022,112.249489 322.085632,112.681580 
z"/>
<path fill="#426C9A" opacity="1.000000" stroke="none" 
	d="
M288.602264,80.032654 
	C286.848114,81.874062 284.921600,84.098114 282.490479,85.309540 
	C281.217163,85.944031 279.058350,84.801498 277.213501,84.106979 
	C280.825226,82.499962 284.522827,81.247467 288.602264,80.032654 
z"/>
<path fill="#20426A" opacity="1.000000" stroke="none" 
	d="
M257.150208,86.486969 
	C257.331207,94.425591 257.444214,102.829483 257.374512,111.599136 
	C257.155273,103.627342 257.118774,95.289787 257.150208,86.486969 
z"/>
<path fill="#456E9B" opacity="1.000000" stroke="none" 
	d="
M288.106689,119.275986 
	C288.481079,119.233566 289.027283,119.441895 289.774658,119.869568 
	C289.410034,119.901520 288.844269,119.714127 288.106689,119.275986 
z"/>
<path fill="#476F9C" opacity="1.000000" stroke="none" 
	d="
M75.851318,111.085983 
	C71.963463,109.508492 71.373260,105.947136 71.204277,102.521202 
	C70.928329,96.926903 71.129707,91.309052 71.129707,84.891823 
	C80.767349,85.462082 90.206223,83.150101 99.691414,86.930023 
	C101.583046,87.635536 103.291893,87.805557 105.000748,87.975578 
	C105.801682,87.705101 106.602623,87.434624 107.919357,87.306747 
	C108.929443,87.209999 109.423737,86.970642 109.918037,86.731277 
	C111.075356,86.209908 112.232666,85.688538 114.011093,85.355667 
	C115.714500,86.914131 116.796799,88.284096 117.879097,89.654060 
	C116.631500,90.438232 115.387878,91.228836 114.135086,92.004601 
	C113.094635,92.648865 112.043373,93.275681 110.867096,94.023605 
	C110.737274,94.136986 110.392693,94.125580 110.056351,94.158310 
	C109.162621,94.540840 108.605232,94.890633 108.066689,95.180862 
	C108.085526,95.121300 108.202110,95.166237 107.805176,95.123383 
	C104.604393,96.001015 101.830620,91.159569 98.818459,95.393311 
	C98.459641,98.165062 98.293709,100.580215 98.021225,103.329323 
	C97.395081,105.149117 96.875481,106.634949 96.090057,107.880997 
	C94.596222,105.760765 93.368217,103.880310 92.083450,101.616768 
	C91.186127,98.668991 90.345573,96.104309 89.347221,93.058151 
	C87.272232,94.499825 86.035973,95.358757 84.108383,96.698013 
	C84.228394,95.099007 84.290070,94.277328 84.350243,93.475586 
	C82.903175,93.547821 81.345543,93.625580 79.669106,93.709267 
	C78.728889,96.734047 72.571045,99.592735 78.143219,103.057350 
	C77.667000,104.834793 77.338661,106.060303 77.005875,107.632652 
	C76.618065,109.014992 76.234695,110.050491 75.851318,111.085983 
z"/>
<path fill="#4C729D" opacity="1.000000" stroke="none" 
	d="
M48.412701,93.683533 
	C47.943031,91.176567 47.928482,88.659973 47.929802,85.724167 
	C51.602299,85.822777 55.264198,86.306664 58.913124,86.874001 
	C60.521980,87.124146 62.105869,87.537514 63.698593,87.888130 
	C65.550308,88.295761 67.399292,88.715836 69.249458,89.130508 
	C68.839584,90.944992 68.995049,93.713470 67.895889,94.364838 
	C65.929489,95.530144 63.167542,95.918533 60.809624,95.731354 
	C56.799847,95.413048 52.845478,94.396835 48.412701,93.683533 
z"/>
<path fill="#456E98" opacity="1.000000" stroke="none" 
	d="
M49.070213,75.894043 
	C49.384037,70.049362 49.663727,64.218391 50.325077,58.442577 
	C50.706738,58.497738 50.573673,58.730335 50.689529,59.154583 
	C51.168915,59.790470 51.532444,60.002106 51.895977,60.213745 
	C56.183475,65.777069 60.470978,71.340401 64.739204,76.878723 
	C61.839577,81.373207 59.087448,76.620743 55.565125,76.641296 
	C52.903141,76.223457 50.958134,76.030655 49.013123,75.837852 
	C49.013123,75.837852 49.036076,75.907753 49.070213,75.894043 
z"/>
<path fill="#49709A" opacity="1.000000" stroke="none" 
	d="
M60.014519,112.122200 
	C60.014519,112.122200 59.610516,111.926826 59.177124,111.717545 
	C58.169983,111.384621 57.596233,111.260986 57.022484,111.137344 
	C56.674454,111.031738 56.326420,110.926132 55.453770,110.652824 
	C54.310486,110.430145 53.691818,110.375168 53.073154,110.320190 
	C52.299152,110.277336 51.525146,110.234474 50.375145,110.298828 
	C49.893654,107.917450 49.788155,105.428856 49.682663,102.940269 
	C52.046116,102.997215 54.530384,102.610329 56.745239,103.213203 
	C60.230640,104.161919 63.334774,107.912468 67.242516,103.998817 
	C67.473526,103.767471 69.236801,104.452446 69.583466,105.092247 
	C70.120323,106.083054 70.396484,107.486000 70.137939,108.558670 
	C69.892570,109.576729 68.818115,110.394958 67.925430,111.591957 
	C67.742630,111.882851 67.338539,111.892166 66.831741,111.963196 
	C65.746742,112.313995 65.168549,112.593758 64.590347,112.873520 
	C63.586884,112.652199 62.583420,112.430878 61.042412,112.143158 
	C60.504871,112.076759 60.014519,112.122200 60.014519,112.122200 
z"/>
<path fill="#426C99" opacity="1.000000" stroke="none" 
	d="
M102.030533,44.931587 
	C98.781151,46.941952 98.205170,50.188255 98.009979,53.944237 
	C95.306671,54.481453 92.610092,54.688148 89.453598,54.669926 
	C88.993675,54.445011 88.975487,54.029961 88.975487,54.029961 
	C88.984161,53.573807 88.992836,53.117657 89.319565,52.228874 
	C90.073372,50.886242 90.509125,49.976234 90.944870,49.066227 
	C90.944870,49.066227 91.006004,48.998882 91.417763,48.982269 
	C95.872688,48.460293 93.887100,46.688847 92.669754,45.039749 
	C90.514061,42.119537 91.146271,39.104687 94.572914,38.306080 
	C96.589211,37.836170 99.403595,38.219719 100.997475,39.391407 
	C102.102333,40.203602 101.738274,43.014000 102.030533,44.931587 
z"/>
<path fill="#456E98" opacity="1.000000" stroke="none" 
	d="
M60.245583,133.840271 
	C57.299911,129.602844 54.628304,125.165146 51.886513,120.358192 
	C51.816326,119.988937 51.949463,119.511360 52.016685,119.272781 
	C57.171383,120.093620 62.258858,121.153030 68.531891,122.459328 
	C65.685974,126.430672 63.102810,130.035339 60.245583,133.840271 
z"/>
<path fill="#446C96" opacity="1.000000" stroke="none" 
	d="
M116.838837,61.182785 
	C117.841209,65.399513 118.528313,69.761734 119.109680,74.578690 
	C114.764046,76.084251 110.524170,77.135063 106.284286,78.185883 
	C106.013069,77.715790 105.741844,77.245697 105.470627,76.775604 
	C109.154945,71.626488 112.839264,66.477379 116.838837,61.182785 
z"/>
<path fill="#456A90" opacity="1.000000" stroke="none" 
	d="
M92.140213,101.999855 
	C93.368217,103.880310 94.596222,105.760765 95.940002,108.176010 
	C94.634918,110.314804 93.214066,111.918800 91.793221,113.522797 
	C90.692772,114.202431 89.592323,114.882057 87.808395,115.758736 
	C85.083160,115.968163 83.041420,115.980553 80.999672,115.992935 
	C79.897789,115.390259 78.795914,114.787582 77.397881,114.076561 
	C76.704994,113.223938 76.308250,112.479660 75.881409,111.410675 
	C76.234695,110.050491 76.618065,109.014992 77.336105,107.726257 
	C79.781219,108.323196 81.891670,109.173370 84.123795,110.356758 
	C85.537407,111.111710 86.829346,111.533440 88.455582,111.789536 
	C89.906654,108.415886 91.023438,105.207870 92.140213,101.999855 
z"/>
<path fill="#3B5C80" opacity="1.000000" stroke="none" 
	d="
M59.135506,54.257263 
	C58.902981,52.935455 58.961147,51.874805 59.082291,50.419739 
	C59.145271,50.025322 59.598000,50.008961 59.935944,50.359337 
	C62.125370,51.448643 63.943848,52.703838 65.834839,52.824711 
	C70.538422,53.125385 75.275040,52.909164 79.998398,52.900497 
	C80.022675,53.103851 80.046951,53.307205 80.058029,53.999245 
	C80.044846,54.487930 79.970154,54.861122 79.970154,54.861122 
	C73.122169,54.746887 66.274178,54.632656 59.135506,54.257263 
z"/>
<path fill="#456E98" opacity="1.000000" stroke="none" 
	d="
M110.996910,93.910225 
	C112.043373,93.275681 113.094635,92.648865 114.135086,92.004601 
	C115.387878,91.228836 116.631500,90.438232 117.879097,89.654060 
	C116.796799,88.284096 115.714500,86.914131 114.333885,85.346558 
	C115.826950,85.318253 117.618324,85.487556 119.636810,85.883835 
	C119.845161,88.049011 119.826401,89.987213 119.512085,92.580093 
	C116.476662,93.459923 113.736786,93.685074 110.996910,93.910225 
z"/>
<path fill="#486382" opacity="1.000000" stroke="none" 
	d="
M98.115715,73.620811 
	C98.021561,75.139404 97.929558,76.216400 97.837563,77.293388 
	C97.522095,77.298660 97.206627,77.303932 96.891159,77.309196 
	C96.597504,72.346085 96.303856,67.382973 96.010201,62.419857 
	C96.712761,62.389709 97.415314,62.359558 98.117867,62.329411 
	C98.117867,65.946007 98.117867,69.562607 98.115715,73.620811 
z"/>
<path fill="#9AB7D7" opacity="1.000000" stroke="none" 
	d="
M100.233566,54.776817 
	C100.438477,53.056293 101.083511,51.461826 101.638916,50.088917 
	C102.761429,51.428169 103.873024,52.754398 105.097504,54.363979 
	C103.698158,54.732510 102.185921,54.817692 100.233566,54.776817 
z"/>
<path fill="#456E98" opacity="1.000000" stroke="none" 
	d="
M104.645943,87.903122 
	C103.291893,87.805557 101.583046,87.635536 99.966064,87.216484 
	C101.469009,87.255196 102.880074,87.542931 104.645943,87.903122 
z"/>
<path fill="#E0F5FF" opacity="1.000000" stroke="none" 
	d="
M49.323601,76.110634 
	C50.958134,76.030655 52.903141,76.223457 55.206978,76.647705 
	C53.588566,76.713905 51.611320,76.548660 49.323601,76.110634 
z"/>
<path fill="#4E739C" opacity="1.000000" stroke="none" 
	d="
M82.719559,56.867218 
	C83.504669,56.439713 84.463501,56.291767 85.908653,56.157555 
	C85.227737,56.496452 84.060516,56.821613 82.719559,56.867218 
z"/>
<path fill="#4E739C" opacity="1.000000" stroke="none" 
	d="
M80.999573,55.359009 
	C81.375168,55.392776 81.892509,55.677113 82.493805,56.261986 
	C82.098938,56.244869 81.620132,55.927219 80.999573,55.359009 
z"/>
<path fill="#456E98" opacity="1.000000" stroke="none" 
	d="
M109.595795,86.765182 
	C109.423737,86.970642 108.929443,87.209999 108.237968,87.321167 
	C108.451714,87.061676 108.862633,86.930382 109.595795,86.765182 
z"/>
<path fill="#4E739C" opacity="1.000000" stroke="none" 
	d="
M80.198349,54.970032 
	C79.970154,54.861122 80.044846,54.487930 80.090134,54.304756 
	C80.365723,54.304371 80.563766,54.517185 80.827972,54.957897 
	C80.759766,55.130161 80.593155,55.104549 80.198349,54.970032 
z"/>
<path fill="#4E739C" opacity="1.000000" stroke="none" 
	d="
M88.790466,54.177200 
	C88.975487,54.029961 88.993675,54.445011 89.002533,54.652538 
	C88.852150,54.923546 88.692909,54.987030 88.276596,55.057026 
	C88.170776,54.782246 88.366081,54.535877 88.790466,54.177200 
z"/>
<path fill="#E0F5FF" opacity="1.000000" stroke="none" 
	d="
M51.751625,59.961540 
	C51.532444,60.002106 51.168915,59.790470 50.771645,59.260452 
	C51.027699,59.197826 51.317482,59.453579 51.751625,59.961540 
z"/>
<path fill="#456E98" opacity="1.000000" stroke="none" 
	d="
M114.637230,119.880508 
	C115.406349,120.968567 116.542397,122.519035 116.152016,123.222824 
	C114.162666,126.809280 111.778595,130.176788 109.283035,133.845520 
	C105.941154,130.102493 102.848915,126.134911 98.829399,120.977554 
	C102.476402,120.977554 104.812500,120.977554 107.576775,120.885773 
	C108.533714,120.708252 109.062469,120.622513 110.158470,120.336342 
	C111.469505,119.998360 112.213295,119.860794 112.957085,119.723236 
	C113.404778,119.799629 113.852470,119.876030 114.637230,119.880508 
z"/>
<path fill="#F1F9FC" opacity="1.000000" stroke="none" 
	d="
M92.040092,113.796303 
	C93.214066,111.918800 94.634918,110.314804 96.205826,108.415787 
	C96.875481,106.634949 97.395081,105.149117 98.331009,103.338074 
	C99.500298,103.295586 100.253250,103.578316 100.584656,103.885193 
	C99.796539,104.152992 99.167282,104.341141 99.102333,104.648521 
	C97.882729,110.420815 100.302147,112.437668 108.007751,112.128784 
	C107.751572,112.595055 107.495399,113.061325 107.122253,113.766556 
	C103.017868,114.090179 99.030678,114.189873 95.042885,114.248192 
	C94.125313,114.261620 93.205658,114.133041 92.040092,113.796303 
z"/>
<path fill="#F1F9FC" opacity="1.000000" stroke="none" 
	d="
M81.137566,116.331604 
	C83.041420,115.980553 85.083160,115.968163 87.562561,115.970947 
	C86.039322,118.973198 83.737549,118.609612 81.137566,116.331604 
z"/>
<path fill="#9AB7D7" opacity="1.000000" stroke="none" 
	d="
M93.080406,130.016998 
	C93.537392,130.442398 93.994377,130.867783 94.451370,131.293182 
	C94.103287,131.550674 93.576576,132.100906 93.437439,132.016006 
	C92.764717,131.605469 92.196198,131.024155 92.046051,130.253525 
	C92.694389,130.008102 92.887398,130.012558 93.080406,130.016998 
z"/>
<path fill="#6F8BAC" opacity="1.000000" stroke="none" 
	d="
M93.100632,129.698395 
	C92.887398,130.012558 92.694389,130.008102 92.211540,130.009735 
	C91.985542,129.249969 92.049385,128.484116 92.113220,127.718262 
	C92.300667,127.706909 92.488121,127.695564 92.675568,127.684212 
	C92.823997,128.249405 92.972427,128.814590 93.100632,129.698395 
z"/>
<path fill="#F1F9FC" opacity="1.000000" stroke="none" 
	d="
M53.341980,110.468605 
	C53.691818,110.375168 54.310486,110.430145 55.180901,110.682510 
	C54.825367,110.792267 54.218086,110.704643 53.341980,110.468605 
z"/>
<path fill="#F1F9FC" opacity="1.000000" stroke="none" 
	d="
M57.254463,111.315186 
	C57.596233,111.260986 58.169983,111.384621 58.952843,111.724274 
	C58.603447,111.791199 58.044941,111.642113 57.254463,111.315186 
z"/>
<path fill="#F1F9FC" opacity="1.000000" stroke="none" 
	d="
M64.914551,112.861008 
	C65.168549,112.593758 65.746742,112.313995 66.654144,112.059662 
	C66.401817,112.339554 65.820290,112.594025 64.914551,112.861008 
z"/>
<path fill="#F1F9FC" opacity="1.000000" stroke="none" 
	d="
M60.110840,112.222382 
	C60.014519,112.122200 60.504871,112.076759 60.734383,112.165680 
	C60.963894,112.254608 60.592926,112.420303 60.592926,112.420303 
	C60.592926,112.420303 60.207157,112.322556 60.110840,112.222382 
z"/>
<path fill="#4E739C" opacity="1.000000" stroke="none" 
	d="
M79.993164,52.657616 
	C75.275040,52.909164 70.538422,53.125385 65.834839,52.824711 
	C63.943848,52.703838 62.125370,51.448643 60.162437,50.356636 
	C61.843552,48.496235 63.636120,46.988922 65.869308,45.590683 
	C71.906372,45.491539 76.872902,46.665157 79.974861,51.929012 
	C79.974861,51.929012 79.987930,52.414726 79.993164,52.657616 
z"/>
<path fill="#CCE6F5" opacity="1.000000" stroke="none" 
	d="
M80.048943,51.690483 
	C76.872902,46.665157 71.906372,45.491539 66.079300,45.342987 
	C67.723732,41.890347 69.598785,38.794483 71.980927,34.861382 
	C74.579781,39.781601 76.916435,44.205410 79.561279,49.180927 
	C79.997810,50.145096 80.126144,50.557552 80.254478,50.970013 
	C80.254478,50.970013 80.123024,51.451950 80.048943,51.690483 
z"/>
<path fill="#CDEBF8" opacity="1.000000" stroke="none" 
	d="
M102.393120,44.965836 
	C101.738274,43.014000 102.102333,40.203602 100.997475,39.391407 
	C99.403595,38.219719 96.589211,37.836170 94.572914,38.306080 
	C91.146271,39.104687 90.514061,42.119537 92.669754,45.039749 
	C93.887100,46.688847 95.872688,48.460293 91.449142,48.949356 
	C90.623032,47.724724 90.177299,46.516403 89.420273,44.727394 
	C89.582520,42.054550 90.056053,39.962395 90.529594,37.870239 
	C90.529594,37.870239 90.883026,37.831345 90.982376,37.684071 
	C96.569038,34.637390 101.007904,35.024582 103.382263,38.952236 
	C104.543732,40.873516 106.407227,43.359413 102.393120,44.965836 
z"/>
<path fill="#48709D" opacity="1.000000" stroke="none" 
	d="
M90.175179,38.061958 
	C90.056053,39.962395 89.582520,42.054550 89.149300,44.543968 
	C89.400002,42.712048 89.610382,40.482861 90.175179,38.061958 
z"/>
<path fill="#4E739C" opacity="1.000000" stroke="none" 
	d="
M90.634811,49.155380 
	C90.509125,49.976234 90.073372,50.886242 89.325523,51.886749 
	C89.450531,51.066345 89.887642,50.155437 90.634811,49.155380 
z"/>
<path fill="#4E739C" opacity="1.000000" stroke="none" 
	d="
M80.371643,50.768715 
	C80.126144,50.557552 79.997810,50.145096 79.810738,49.414116 
	C79.997597,49.586201 80.243195,50.076809 80.371643,50.768715 
z"/>
<path fill="#48709D" opacity="1.000000" stroke="none" 
	d="
M83.142418,35.892105 
	C83.246605,35.819748 83.399010,35.892944 83.761948,36.107597 
	C83.972481,36.249062 83.534210,36.301651 83.534210,36.301651 
	C83.534210,36.301651 83.190643,36.037663 83.142418,35.892105 
z"/>
<path fill="#9AB7D7" opacity="1.000000" stroke="none" 
	d="
M110.347549,36.089554 
	C110.691109,36.114017 110.793732,36.417194 110.648819,36.998981 
	C110.309540,36.970211 110.211311,36.667103 110.347549,36.089554 
z"/>
<path fill="#9AB7D7" opacity="1.000000" stroke="none" 
	d="
M110.346115,47.172321 
	C110.538025,47.069458 110.664345,47.281189 110.734802,47.510113 
	C110.766533,47.613163 110.686783,47.750523 110.528870,48.008957 
	C110.352669,47.928371 110.305214,47.711147 110.346115,47.172321 
z"/>
<path fill="#F6FBFD" opacity="1.000000" stroke="none" 
	d="
M101.006210,103.861046 
	C100.253250,103.578316 99.500298,103.295586 98.437553,103.004105 
	C98.293709,100.580215 98.459641,98.165062 99.205330,95.402222 
	C102.594627,94.800545 105.337448,99.573151 108.202110,95.166237 
	C108.202110,95.166237 108.085526,95.121300 108.403229,95.132019 
	C109.278191,94.803688 109.835442,94.464630 110.392693,94.125580 
	C110.392693,94.125580 110.737274,94.136986 110.867096,94.023605 
	C113.736786,93.685074 116.476662,93.459923 119.555450,92.993095 
	C120.284988,95.538826 120.675613,98.326225 120.616241,101.574951 
	C119.623947,102.076241 119.081635,102.116211 118.383392,102.173218 
	C118.227455,102.190262 117.996269,101.978180 117.749344,101.776520 
	C116.337173,101.705673 115.171944,101.836479 113.717163,102.192490 
	C109.420105,104.042946 105.508789,106.496185 101.006210,103.861046 
z"/>
<path fill="#486D98" opacity="1.000000" stroke="none" 
	d="
M117.996269,101.978180 
	C117.996269,101.978180 118.227455,102.190262 118.593918,102.460464 
	C119.340324,103.786751 119.720253,104.842850 120.100174,105.898941 
	C120.050468,106.392776 120.000763,106.886620 119.972626,108.141129 
	C117.557312,109.564255 115.120438,110.226700 112.683571,110.889145 
	C112.295883,110.909920 111.908203,110.930695 110.936340,111.060135 
	C110.022041,111.405289 109.691925,111.641777 109.361801,111.878265 
	C109.361801,111.878265 108.891953,111.781616 108.891953,111.781616 
	C108.891953,111.781616 108.425385,111.893021 108.216568,112.010902 
	C100.302147,112.437668 97.882729,110.420815 99.102333,104.648521 
	C99.167282,104.341141 99.796539,104.152992 100.584656,103.885193 
	C105.508789,106.496185 109.420105,104.042946 114.115143,102.228523 
	C115.867188,102.018967 116.931732,101.998573 117.996269,101.978180 
z"/>
<path fill="#F1F9FC" opacity="1.000000" stroke="none" 
	d="
M113.141510,110.920258 
	C115.120438,110.226700 117.557312,109.564255 120.057312,108.505783 
	C120.367599,108.887878 120.614777,109.665993 120.816910,110.758835 
	C118.381058,111.032829 115.990250,110.992104 113.141510,110.920258 
z"/>
<path fill="#F1F9FC" opacity="1.000000" stroke="none" 
	d="
M120.311974,105.635002 
	C119.720253,104.842850 119.340324,103.786751 118.749863,102.443420 
	C119.081635,102.116211 119.623947,102.076241 120.573257,102.017548 
	C120.828094,103.122902 120.675926,104.246979 120.311974,105.635002 
z"/>
<path fill="#F1F9FC" opacity="1.000000" stroke="none" 
	d="
M112.715721,119.569099 
	C112.213295,119.860794 111.469505,119.998360 110.347092,120.136070 
	C110.803772,119.895805 111.639069,119.655380 112.715721,119.569099 
z"/>
<path fill="#F1F9FC" opacity="1.000000" stroke="none" 
	d="
M109.651688,111.810181 
	C109.691925,111.641777 110.022041,111.405289 110.665955,111.173828 
	C110.633690,111.366608 110.287628,111.554359 109.651688,111.810181 
z"/>
<path fill="#E5F3FB" opacity="1.000000" stroke="none" 
	d="
M92.083450,101.616768 
	C91.023438,105.207870 89.906654,108.415886 88.302155,111.530136 
	C86.293747,111.639778 86.874077,106.173973 84.002121,110.023537 
	C81.891670,109.173370 79.781219,108.323196 77.340546,107.379410 
	C77.338661,106.060303 77.667000,104.834793 78.143219,103.057350 
	C72.571045,99.592735 78.728889,96.734047 79.669106,93.709267 
	C81.345543,93.625580 82.903175,93.547821 84.350243,93.475586 
	C84.290070,94.277328 84.228394,95.099007 84.108383,96.698013 
	C86.035973,95.358757 87.272232,94.499825 89.347221,93.058151 
	C90.345573,96.104309 91.186127,98.668991 92.083450,101.616768 
z"/>
<path fill="#456E98" opacity="1.000000" stroke="none" 
	d="
M107.805176,95.123383 
	C105.337448,99.573151 102.594627,94.800545 99.398216,95.045609 
	C101.830620,91.159569 104.604393,96.001015 107.805176,95.123383 
z"/>
<path fill="#456E98" opacity="1.000000" stroke="none" 
	d="
M110.056351,94.158310 
	C109.835442,94.464630 109.278191,94.803688 108.384399,95.191589 
	C108.605232,94.890633 109.162621,94.540840 110.056351,94.158310 
z"/>
<path fill="#476F9C" opacity="1.000000" stroke="none" 
	d="
M84.123795,110.356758 
	C86.874077,106.173973 86.293747,111.639778 87.967865,111.695786 
	C86.829346,111.533440 85.537407,111.111710 84.123795,110.356758 
z"/>
<path fill="#F1F9FC" opacity="1.000000" stroke="none" 
	d="
M117.749344,101.776520 
	C116.931732,101.998573 115.867188,102.018967 114.404678,102.003326 
	C115.171944,101.836479 116.337173,101.705673 117.749344,101.776520 
z"/>
</svg>